<svg width="13" height="13" viewBox="0 0 13 13" fill="none" xmlns="http://www.w3.org/2000/svg">
<path d="M5.19531 0.847656C4.92188 1.12109 4.94922 1.53125 5.19531 1.80469L8.50391 4.92188H0.65625C0.273438 4.92188 0 5.22266 0 5.57812V6.45312C0 6.83594 0.273438 7.10938 0.65625 7.10938H8.50391L5.19531 10.2539C4.94922 10.5273 4.94922 10.9375 5.19531 11.2109L5.79688 11.8125C6.07031 12.0586 6.48047 12.0586 6.72656 11.8125L12.0586 6.48047C12.3047 6.23438 12.3047 5.82422 12.0586 5.55078L6.72656 0.246094C6.48047 0 6.07031 0 5.79688 0.246094L5.19531 0.847656Z" fill="#1565D8"/>
</svg>
