<svg width="64" height="64" viewBox="0 0 64 64" fill="none" xmlns="http://www.w3.org/2000/svg">
<g id="Icon  3" clip-path="url(#clip0_3107_26919)">
<g id="Border" opacity="0.06">
<rect id="Shape" width="64" height="64" rx="16" fill="#1565D8"/>
</g>
<path id="dribbble" d="M31.5 15.0625C21.8672 15.0625 14.0625 22.9375 14.0625 32.5C14.0625 42.1328 21.8672 49.9375 31.5 49.9375C41.0625 49.9375 48.9375 42.1328 48.9375 32.5C48.9375 22.9375 41.0625 15.0625 31.5 15.0625ZM42.9609 23.1484C45.0703 25.6797 46.3359 28.9141 46.3359 32.4297C45.8438 32.2891 40.9219 31.3047 36 31.9375C35.5781 30.9531 35.2266 30.1094 34.6641 28.9844C40.2188 26.7344 42.6797 23.5703 42.9609 23.1484ZM41.3438 21.3906C41.0625 21.8125 38.8125 24.8359 33.5391 26.8047C31.0781 22.3047 28.4062 18.6484 27.9844 18.0859C32.6953 16.9609 37.6875 18.1562 41.3438 21.3906ZM25.1016 19.0703C25.5234 19.6328 28.1953 23.2891 30.6562 27.7188C23.6953 29.5469 17.5781 29.5469 16.875 29.4766C17.8594 24.9062 20.9531 21.0391 25.1016 19.0703ZM16.5938 32.5703C16.5938 32.4297 16.5938 32.2891 16.5938 32.0781C17.2266 32.1484 24.4688 32.2188 31.8516 29.9688C32.3438 30.8125 32.6953 31.6562 33.1172 32.5C27.7031 34.0469 22.7812 38.4062 20.3906 42.4844C18 39.8828 16.5938 36.3672 16.5938 32.5703ZM22.2891 44.3125C23.9062 41.1484 28.125 37 34.1016 34.9609C36.2109 40.375 37.0547 44.9453 37.2656 46.2812C32.4844 48.3203 26.7188 47.7578 22.2891 44.3125ZM39.7969 44.875C39.6562 44.0312 38.8125 39.6719 36.9141 34.2578C41.5547 33.5547 45.6328 34.75 46.1953 34.8906C45.4922 39.0391 43.1016 42.625 39.7969 44.875Z" fill="#1565D8"/>
</g>
<defs>
<clipPath id="clip0_3107_26919">
<rect width="64" height="64" fill="white"/>
</clipPath>
</defs>
</svg>
