<svg width="16" height="16" viewBox="0 0 16 16" fill="none" xmlns="http://www.w3.org/2000/svg">
<path d="M7.91016 3.83203C10.125 3.83203 11.9531 5.66016 11.9531 7.875C11.9531 10.125 10.125 11.918 7.91016 11.918C5.66016 11.918 3.86719 10.125 3.86719 7.875C3.86719 5.66016 5.66016 3.83203 7.91016 3.83203ZM7.91016 10.5117C9.35156 10.5117 10.5117 9.35156 10.5117 7.875C10.5117 6.43359 9.35156 5.27344 7.91016 5.27344C6.43359 5.27344 5.27344 6.43359 5.27344 7.875C5.27344 9.35156 6.46875 10.5117 7.91016 10.5117ZM13.043 3.69141C13.043 4.21875 12.6211 4.64062 12.0938 4.64062C11.5664 4.64062 11.1445 4.21875 11.1445 3.69141C11.1445 3.16406 11.5664 2.74219 12.0938 2.74219C12.6211 2.74219 13.043 3.16406 13.043 3.69141ZM15.7148 4.64062C15.7852 5.94141 15.7852 9.84375 15.7148 11.1445C15.6445 12.4102 15.3633 13.5 14.4492 14.4492C13.5352 15.3633 12.4102 15.6445 11.1445 15.7148C9.84375 15.7852 5.94141 15.7852 4.64062 15.7148C3.375 15.6445 2.28516 15.3633 1.33594 14.4492C0.421875 13.5 0.140625 12.4102 0.0703125 11.1445C0 9.84375 0 5.94141 0.0703125 4.64062C0.140625 3.375 0.421875 2.25 1.33594 1.33594C2.28516 0.421875 3.375 0.140625 4.64062 0.0703125C5.94141 0 9.84375 0 11.1445 0.0703125C12.4102 0.140625 13.5352 0.421875 14.4492 1.33594C15.3633 2.25 15.6445 3.375 15.7148 4.64062ZM14.0273 12.5156C14.4492 11.4961 14.3438 9.03516 14.3438 7.875C14.3438 6.75 14.4492 4.28906 14.0273 3.23438C13.7461 2.56641 13.2188 2.00391 12.5508 1.75781C11.4961 1.33594 9.03516 1.44141 7.91016 1.44141C6.75 1.44141 4.28906 1.33594 3.26953 1.75781C2.56641 2.03906 2.03906 2.56641 1.75781 3.23438C1.33594 4.28906 1.44141 6.75 1.44141 7.875C1.44141 9.03516 1.33594 11.4961 1.75781 12.5156C2.03906 13.2188 2.56641 13.7461 3.26953 14.0273C4.28906 14.4492 6.75 14.3438 7.91016 14.3438C9.03516 14.3438 11.4961 14.4492 12.5508 14.0273C13.2188 13.7461 13.7812 13.2188 14.0273 12.5156Z" fill="#5A7184"/>
</svg>
