<svg width="64" height="64" viewBox="0 0 64 64" fill="none" xmlns="http://www.w3.org/2000/svg">
<g clip-path="url(#clip0_3107_26897)">
<g opacity="0.06">
<rect width="64" height="64" rx="16" fill="#1565D8"/>
</g>
<path d="M32 24.4141C27.5 24.4141 23.9141 28.0703 23.9141 32.5C23.9141 37 27.5 40.5859 32 40.5859C36.4297 40.5859 40.0859 37 40.0859 32.5C40.0859 28.0703 36.4297 24.4141 32 24.4141ZM32 37.7734C29.1172 37.7734 26.7266 35.4531 26.7266 32.5C26.7266 29.6172 29.0469 27.2969 32 27.2969C34.8828 27.2969 37.2031 29.6172 37.2031 32.5C37.2031 35.4531 34.8828 37.7734 32 37.7734ZM42.2656 24.1328C42.2656 23.0781 41.4219 22.2344 40.3672 22.2344C39.3125 22.2344 38.4688 23.0781 38.4688 24.1328C38.4688 25.1875 39.3125 26.0312 40.3672 26.0312C41.4219 26.0312 42.2656 25.1875 42.2656 24.1328ZM47.6094 26.0312C47.4688 23.5 46.9062 21.25 45.0781 19.4219C43.25 17.5938 41 17.0312 38.4688 16.8906C35.8672 16.75 28.0625 16.75 25.4609 16.8906C22.9297 17.0312 20.75 17.5938 18.8516 19.4219C17.0234 21.25 16.4609 23.5 16.3203 26.0312C16.1797 28.6328 16.1797 36.4375 16.3203 39.0391C16.4609 41.5703 17.0234 43.75 18.8516 45.6484C20.75 47.4766 22.9297 48.0391 25.4609 48.1797C28.0625 48.3203 35.8672 48.3203 38.4688 48.1797C41 48.0391 43.25 47.4766 45.0781 45.6484C46.9062 43.75 47.4688 41.5703 47.6094 39.0391C47.75 36.4375 47.75 28.6328 47.6094 26.0312ZM44.2344 41.7812C43.7422 43.1875 42.6172 44.2422 41.2812 44.8047C39.1719 45.6484 34.25 45.4375 32 45.4375C29.6797 45.4375 24.7578 45.6484 22.7188 44.8047C21.3125 44.2422 20.2578 43.1875 19.6953 41.7812C18.8516 39.7422 19.0625 34.8203 19.0625 32.5C19.0625 30.25 18.8516 25.3281 19.6953 23.2188C20.2578 21.8828 21.3125 20.8281 22.7188 20.2656C24.7578 19.4219 29.6797 19.6328 32 19.6328C34.25 19.6328 39.1719 19.4219 41.2812 20.2656C42.6172 20.7578 43.6719 21.8828 44.2344 23.2188C45.0781 25.3281 44.8672 30.25 44.8672 32.5C44.8672 34.8203 45.0781 39.7422 44.2344 41.7812Z" fill="#1565D8"/>
</g>
<defs>
<clipPath id="clip0_3107_26897">
<rect width="64" height="64" fill="white"/>
</clipPath>
</defs>
</svg>
