<svg width="16" height="16" viewBox="0 0 16 16" fill="none" xmlns="http://www.w3.org/2000/svg">
<path d="M14.625 0C15.2227 0 15.75 0.527344 15.75 1.16016V14.625C15.75 15.2578 15.2227 15.75 14.625 15.75H1.08984C0.492188 15.75 0 15.2578 0 14.625V1.16016C0 0.527344 0.492188 0 1.08984 0H14.625ZM4.74609 13.5V6.01172H2.42578V13.5H4.74609ZM3.58594 4.95703C4.32422 4.95703 4.92188 4.35938 4.92188 3.62109C4.92188 2.88281 4.32422 2.25 3.58594 2.25C2.8125 2.25 2.21484 2.88281 2.21484 3.62109C2.21484 4.35938 2.8125 4.95703 3.58594 4.95703ZM13.5 13.5V9.38672C13.5 7.38281 13.043 5.80078 10.6875 5.80078C9.5625 5.80078 8.78906 6.43359 8.47266 7.03125H8.4375V6.01172H6.22266V13.5H8.54297V9.80859C8.54297 8.82422 8.71875 7.875 9.94922 7.875C11.1445 7.875 11.1445 9 11.1445 9.84375V13.5H13.5Z" fill="#5A7184"/>
</svg>
