<svg width="94" height="31" viewBox="0 0 94 31" fill="none" xmlns="http://www.w3.org/2000/svg">
<g filter="url(#filter0_d_3485_2852)">
<circle cx="13.0935" cy="14.0935" r="10.0935" fill="#2188E7" fill-opacity="0.5" shape-rendering="crispEdges"/>
<circle cx="13.0935" cy="14.0935" r="9.88318" stroke="white" stroke-width="0.420561" shape-rendering="crispEdges"/>
</g>
<g filter="url(#filter1_d_3485_2852)">
<circle cx="26.5505" cy="14.0935" r="10.0935" fill="#2188E7" fill-opacity="0.5" shape-rendering="crispEdges"/>
<circle cx="26.5505" cy="14.0935" r="9.88318" stroke="white" stroke-width="0.420561" shape-rendering="crispEdges"/>
</g>
<path d="M54.7533 14.5935V7.25281H56.0831V13.4788H59.3162V14.5935H54.7533ZM66.7438 10.9232C66.7438 11.7141 66.5957 12.3915 66.2994 12.9555C66.0054 13.517 65.604 13.9471 65.095 14.2458C64.5884 14.5445 64.0137 14.6939 63.371 14.6939C62.7282 14.6939 62.1523 14.5445 61.6433 14.2458C61.1367 13.9447 60.7353 13.5134 60.439 12.9519C60.1451 12.388 59.9981 11.7117 59.9981 10.9232C59.9981 10.1322 60.1451 9.45597 60.439 8.89443C60.7353 8.3305 61.1367 7.89918 61.6433 7.60049C62.1523 7.30179 62.7282 7.15245 63.371 7.15245C64.0137 7.15245 64.5884 7.30179 65.095 7.60049C65.604 7.89918 66.0054 8.3305 66.2994 8.89443C66.5957 9.45597 66.7438 10.1322 66.7438 10.9232ZM65.4069 10.9232C65.4069 10.3664 65.3196 9.89685 65.1452 9.51452C64.9732 9.1298 64.7342 8.83947 64.4283 8.64353C64.1225 8.44519 63.77 8.34603 63.371 8.34603C62.9719 8.34603 62.6194 8.44519 62.3136 8.64353C62.0077 8.83947 61.7676 9.1298 61.5931 9.51452C61.4211 9.89685 61.3351 10.3664 61.3351 10.9232C61.3351 11.4799 61.4211 11.9507 61.5931 12.3354C61.7676 12.7177 62.0077 13.008 62.3136 13.2064C62.6194 13.4023 62.9719 13.5003 63.371 13.5003C63.77 13.5003 64.1225 13.4023 64.4283 13.2064C64.7342 13.008 64.9732 12.7177 65.1452 12.3354C65.3196 11.9507 65.4069 11.4799 65.4069 10.9232ZM72.9187 9.59696C72.859 9.4034 72.7765 9.23016 72.6714 9.07723C72.5686 8.92191 72.4444 8.78929 72.2986 8.67937C72.1552 8.56945 71.9904 8.48701 71.804 8.43205C71.6176 8.3747 71.4145 8.34603 71.1946 8.34603C70.8004 8.34603 70.4491 8.44519 70.1409 8.64353C69.8326 8.84186 69.5901 9.13338 69.4132 9.5181C69.2388 9.90043 69.1516 10.3664 69.1516 10.916C69.1516 11.4704 69.2388 11.9399 69.4132 12.3246C69.5877 12.7093 69.8302 13.0021 70.1409 13.2028C70.4515 13.4011 70.8123 13.5003 71.2233 13.5003C71.5961 13.5003 71.9187 13.4286 72.1911 13.2852C72.4659 13.1419 72.6774 12.9387 72.8255 12.6759C72.9737 12.4107 73.0477 12.1 73.0477 11.744L73.3488 11.7906H71.3559V10.7511H74.3345V11.6329C74.3345 12.2613 74.2007 12.8049 73.9331 13.2637C73.6654 13.7225 73.2974 14.0762 72.8291 14.3247C72.3607 14.5708 71.8231 14.6939 71.2162 14.6939C70.5399 14.6939 69.9461 14.5421 69.4347 14.2387C68.9258 13.9328 68.5279 13.4991 68.2412 12.9375C67.9568 12.3736 67.8146 11.7045 67.8146 10.9303C67.8146 10.3377 67.8983 9.80843 68.0655 9.34247C68.2352 8.87651 68.4718 8.48104 68.7752 8.15606C69.0787 7.82869 69.4347 7.58018 69.8434 7.41052C70.252 7.23847 70.6964 7.15245 71.1767 7.15245C71.5829 7.15245 71.9617 7.21219 72.313 7.33166C72.6642 7.44875 72.9761 7.61602 73.2485 7.83347C73.5233 8.05092 73.7491 8.30899 73.9259 8.60768C74.1027 8.90638 74.2186 9.23614 74.2736 9.59696H72.9187ZM82.1797 10.9232C82.1797 11.7141 82.0316 12.3915 81.7352 12.9555C81.4413 13.517 81.0399 13.9471 80.5309 14.2458C80.0243 14.5445 79.4496 14.6939 78.8069 14.6939C78.1641 14.6939 77.5882 14.5445 77.0792 14.2458C76.5726 13.9447 76.1712 13.5134 75.8749 12.9519C75.581 12.388 75.434 11.7117 75.434 10.9232C75.434 10.1322 75.581 9.45597 75.8749 8.89443C76.1712 8.3305 76.5726 7.89918 77.0792 7.60049C77.5882 7.30179 78.1641 7.15245 78.8069 7.15245C79.4496 7.15245 80.0243 7.30179 80.5309 7.60049C81.0399 7.89918 81.4413 8.3305 81.7352 8.89443C82.0316 9.45597 82.1797 10.1322 82.1797 10.9232ZM80.8428 10.9232C80.8428 10.3664 80.7555 9.89685 80.5811 9.51452C80.409 9.1298 80.1701 8.83947 79.8642 8.64353C79.5584 8.44519 79.2059 8.34603 78.8069 8.34603C78.4078 8.34603 78.0553 8.44519 77.7495 8.64353C77.4436 8.83947 77.2035 9.1298 77.029 9.51452C76.857 9.89685 76.771 10.3664 76.771 10.9232C76.771 11.4799 76.857 11.9507 77.029 12.3354C77.2035 12.7177 77.4436 13.008 77.7495 13.2064C78.0553 13.4023 78.4078 13.5003 78.8069 13.5003C79.2059 13.5003 79.5584 13.4023 79.8642 13.2064C80.1701 13.008 80.409 12.7177 80.5811 12.3354C80.7555 11.9507 80.8428 11.4799 80.8428 10.9232Z" fill="white"/>
<path d="M43.8328 21.5935V18.8407H44.3315V21.1755H45.5439V21.5935H43.8328ZM46.8557 21.6338C46.6541 21.6338 46.4794 21.5895 46.3315 21.5008C46.1837 21.412 46.069 21.2879 45.9874 21.1284C45.9068 20.9689 45.8665 20.7826 45.8665 20.5693C45.8665 20.356 45.9068 20.1692 45.9874 20.0088C46.069 19.8484 46.1837 19.7238 46.3315 19.6351C46.4794 19.5464 46.6541 19.5021 46.8557 19.5021C47.0574 19.5021 47.2321 19.5464 47.3799 19.6351C47.5278 19.7238 47.642 19.8484 47.7227 20.0088C47.8042 20.1692 47.845 20.356 47.845 20.5693C47.845 20.7826 47.8042 20.9689 47.7227 21.1284C47.642 21.2879 47.5278 21.412 47.3799 21.5008C47.2321 21.5895 47.0574 21.6338 46.8557 21.6338ZM46.8584 21.244C46.9677 21.244 47.0591 21.214 47.1326 21.154C47.2061 21.093 47.2608 21.0115 47.2966 20.9093C47.3333 20.8072 47.3517 20.6934 47.3517 20.5679C47.3517 20.4416 47.3333 20.3273 47.2966 20.2252C47.2608 20.1221 47.2061 20.0401 47.1326 19.9792C47.0591 19.9183 46.9677 19.8878 46.8584 19.8878C46.7464 19.8878 46.6532 19.9183 46.5788 19.9792C46.5054 20.0401 46.4503 20.1221 46.4135 20.2252C46.3777 20.3273 46.3598 20.4416 46.3598 20.5679C46.3598 20.6934 46.3777 20.8072 46.4135 20.9093C46.4503 21.0115 46.5054 21.093 46.5788 21.154C46.6532 21.214 46.7464 21.244 46.8584 21.244ZM48.258 21.5935V19.5289H48.7298V19.873H48.7513C48.7889 19.7539 48.8534 19.662 48.9448 19.5975C49.0371 19.5321 49.1424 19.4994 49.2607 19.4994C49.2876 19.4994 49.3176 19.5007 49.3508 19.5034C49.3848 19.5052 49.413 19.5083 49.4354 19.5128V19.9604C49.4148 19.9532 49.3821 19.947 49.3373 19.9416C49.2934 19.9353 49.2508 19.9322 49.2096 19.9322C49.1209 19.9322 49.0412 19.9514 48.9704 19.99C48.9005 20.0276 48.8454 20.08 48.805 20.1472C48.7647 20.2144 48.7446 20.2919 48.7446 20.3798V21.5935H48.258ZM50.5877 21.6338C50.3807 21.6338 50.2019 21.5908 50.0514 21.5048C49.9017 21.4179 49.7866 21.2951 49.7059 21.1365C49.6253 20.977 49.585 20.7893 49.585 20.5733C49.585 20.3609 49.6253 20.1746 49.7059 20.0142C49.7875 19.8529 49.9013 19.7274 50.0474 19.6378C50.1934 19.5473 50.365 19.5021 50.5622 19.5021C50.6894 19.5021 50.8095 19.5227 50.9224 19.5639C51.0362 19.6042 51.1365 19.6669 51.2235 19.7521C51.3113 19.8372 51.3803 19.9456 51.4305 20.0773C51.4806 20.2082 51.5057 20.3641 51.5057 20.5451V20.6943H49.8135V20.3663H51.0393C51.0384 20.2731 51.0183 20.1902 50.9788 20.1177C50.9394 20.0442 50.8843 19.9864 50.8135 19.9443C50.7436 19.9022 50.6621 19.8811 50.5689 19.8811C50.4694 19.8811 50.382 19.9053 50.3068 19.9537C50.2315 20.0012 50.1728 20.0639 50.1307 20.1419C50.0895 20.2189 50.0684 20.3036 50.0675 20.3959V20.6822C50.0675 20.8023 50.0895 20.9053 50.1334 20.9913C50.1773 21.0765 50.2387 21.1419 50.3175 21.1876C50.3964 21.2324 50.4887 21.2548 50.5944 21.2548C50.6652 21.2548 50.7293 21.2449 50.7866 21.2252C50.844 21.2046 50.8937 21.1746 50.9358 21.1352C50.9779 21.0957 51.0097 21.0469 51.0313 20.9887L51.4856 21.0397C51.4569 21.1598 51.4022 21.2646 51.3216 21.3543C51.2418 21.443 51.1397 21.512 51.0151 21.5612C50.8906 21.6096 50.7481 21.6338 50.5877 21.6338ZM51.9174 21.5935V19.5289H52.3824V19.8798H52.4066C52.4496 19.7615 52.5209 19.6692 52.6203 19.6029C52.7198 19.5357 52.8385 19.5021 52.9765 19.5021C53.1163 19.5021 53.2342 19.5361 53.33 19.6042C53.4268 19.6714 53.4949 19.7633 53.5343 19.8798H53.5558C53.6015 19.7651 53.6786 19.6737 53.787 19.6055C53.8964 19.5366 54.0258 19.5021 54.1755 19.5021C54.3655 19.5021 54.5205 19.5621 54.6406 19.6822C54.7606 19.8022 54.8207 19.9774 54.8207 20.2077V21.5935H54.3328V20.283C54.3328 20.1548 54.2987 20.0612 54.2306 20.0021C54.1625 19.942 54.0792 19.912 53.9806 19.912C53.8632 19.912 53.7714 19.9487 53.705 20.0222C53.6396 20.0948 53.6069 20.1893 53.6069 20.3058V21.5935H53.1298V20.2628C53.1298 20.1562 53.0975 20.0711 53.033 20.0074C52.9694 19.9438 52.886 19.912 52.783 19.912C52.7131 19.912 52.6495 19.9299 52.5921 19.9658C52.5348 20.0007 52.4891 20.0505 52.455 20.115C52.421 20.1786 52.4039 20.253 52.4039 20.3381V21.5935H51.9174ZM56.2532 21.5935V19.5289H56.7397V21.5935H56.2532ZM56.4978 19.2359C56.4207 19.2359 56.3544 19.2104 56.2989 19.1593C56.2433 19.1073 56.2155 19.0451 56.2155 18.9725C56.2155 18.899 56.2433 18.8367 56.2989 18.7856C56.3544 18.7337 56.4207 18.7077 56.4978 18.7077C56.5758 18.7077 56.6421 18.7337 56.6967 18.7856C56.7523 18.8367 56.7801 18.899 56.7801 18.9725C56.7801 19.0451 56.7523 19.1073 56.6967 19.1593C56.6421 19.2104 56.5758 19.2359 56.4978 19.2359ZM57.2401 22.3677V19.5289H57.7186V19.8703H57.7468C57.7719 19.8202 57.8073 19.7668 57.853 19.7104C57.8987 19.653 57.9605 19.6042 58.0385 19.5639C58.1165 19.5227 58.2159 19.5021 58.3369 19.5021C58.4964 19.5021 58.6402 19.5428 58.7684 19.6244C58.8974 19.705 58.9995 19.8246 59.0748 19.9832C59.151 20.141 59.1891 20.3345 59.1891 20.5639C59.1891 20.7906 59.1519 20.9833 59.0775 21.1419C59.0031 21.3005 58.9019 21.4215 58.7737 21.5048C58.6456 21.5881 58.5004 21.6298 58.3382 21.6298C58.22 21.6298 58.1218 21.6101 58.0439 21.5707C57.9659 21.5312 57.9032 21.4837 57.8557 21.4282C57.8091 21.3717 57.7728 21.3184 57.7468 21.2682H57.7267V22.3677H57.2401ZM57.7172 20.5612C57.7172 20.6947 57.7361 20.8117 57.7737 20.912C57.8122 21.0124 57.8673 21.0908 57.939 21.1473C58.0116 21.2028 58.0994 21.2306 58.2025 21.2306C58.31 21.2306 58.4001 21.2019 58.4726 21.1446C58.5452 21.0863 58.5999 21.007 58.6366 20.9067C58.6743 20.8054 58.6931 20.6903 58.6931 20.5612C58.6931 20.4331 58.6747 20.3193 58.638 20.2198C58.6012 20.1203 58.5466 20.0424 58.474 19.9859C58.4014 19.9295 58.3109 19.9013 58.2025 19.9013C58.0985 19.9013 58.0103 19.9286 57.9377 19.9832C57.8651 20.0379 57.81 20.1145 57.7724 20.2131C57.7356 20.3117 57.7172 20.4277 57.7172 20.5612ZM61.2375 20.0746L60.7939 20.123C60.7814 20.0782 60.7594 20.0361 60.7281 19.9967C60.6976 19.9573 60.6564 19.9255 60.6044 19.9013C60.5524 19.8771 60.4888 19.865 60.4136 19.865C60.3123 19.865 60.2272 19.8869 60.1582 19.9308C60.0901 19.9747 60.0565 20.0316 60.0574 20.1015C60.0565 20.1616 60.0784 20.2104 60.1232 20.248C60.1689 20.2857 60.2442 20.3166 60.349 20.3408L60.7012 20.4161C60.8965 20.4582 61.0417 20.5249 61.1367 20.6163C61.2326 20.7077 61.281 20.8274 61.2819 20.9752C61.281 21.1051 61.2429 21.2198 61.1676 21.3193C61.0932 21.4179 60.9897 21.4949 60.8571 21.5505C60.7245 21.6061 60.5722 21.6338 60.4001 21.6338C60.1474 21.6338 59.944 21.581 59.7899 21.4752C59.6358 21.3686 59.5439 21.2203 59.5143 21.0303L59.9888 20.9846C60.0103 21.0778 60.056 21.1482 60.1259 21.1956C60.1958 21.2431 60.2868 21.2669 60.3988 21.2669C60.5144 21.2669 60.6071 21.2431 60.677 21.1956C60.7478 21.1482 60.7832 21.0895 60.7832 21.0196C60.7832 20.9604 60.7603 20.9116 60.7146 20.8731C60.6698 20.8345 60.5999 20.805 60.505 20.7843L60.1528 20.7104C59.9548 20.6692 59.8083 20.5998 59.7133 20.5021C59.6183 20.4035 59.5712 20.279 59.5721 20.1284C59.5712 20.0012 59.6057 19.891 59.6756 19.7978C59.7464 19.7037 59.8445 19.6311 59.97 19.58C60.0963 19.528 60.242 19.5021 60.4068 19.5021C60.6488 19.5021 60.8392 19.5536 60.9781 19.6566C61.1179 19.7597 61.2043 19.899 61.2375 20.0746ZM62.999 20.7252V19.5289H63.4855V21.5935H63.0138V21.2266H62.9923C62.9457 21.3422 62.869 21.4367 62.7624 21.5102C62.6567 21.5836 62.5263 21.6204 62.3713 21.6204C62.236 21.6204 62.1163 21.5904 62.0124 21.5303C61.9093 21.4694 61.8287 21.3811 61.7704 21.2655C61.7122 21.149 61.6831 21.0084 61.6831 20.8435V19.5289H62.1697V20.7682C62.1697 20.899 62.2055 21.003 62.2772 21.0801C62.3489 21.1571 62.443 21.1956 62.5594 21.1956C62.6311 21.1956 62.7006 21.1782 62.7678 21.1432C62.835 21.1083 62.8901 21.0563 62.9331 20.9873C62.977 20.9174 62.999 20.83 62.999 20.7252ZM63.9859 21.5935V19.5289H64.451V19.8798H64.4752C64.5182 19.7615 64.5894 19.6692 64.6889 19.6029C64.7883 19.5357 64.9071 19.5021 65.0451 19.5021C65.1849 19.5021 65.3027 19.5361 65.3986 19.6042C65.4953 19.6714 65.5634 19.7633 65.6029 19.8798H65.6244C65.6701 19.7651 65.7471 19.6737 65.8556 19.6055C65.9649 19.5366 66.0944 19.5021 66.244 19.5021C66.434 19.5021 66.589 19.5621 66.7091 19.6822C66.8292 19.8022 66.8892 19.9774 66.8892 20.2077V21.5935H66.4013V20.283C66.4013 20.1548 66.3672 20.0612 66.2991 20.0021C66.231 19.942 66.1477 19.912 66.0491 19.912C65.9317 19.912 65.8399 19.9487 65.7736 20.0222C65.7082 20.0948 65.6755 20.1893 65.6755 20.3058V21.5935H65.1983V20.2628C65.1983 20.1562 65.166 20.0711 65.1015 20.0074C65.0379 19.9438 64.9546 19.912 64.8515 19.912C64.7816 19.912 64.718 19.9299 64.6606 19.9658C64.6033 20.0007 64.5576 20.0505 64.5235 20.115C64.4895 20.1786 64.4725 20.253 64.4725 20.3381V21.5935H63.9859ZM69.0878 21.6298C68.9257 21.6298 68.7805 21.5881 68.6524 21.5048C68.5242 21.4215 68.423 21.3005 68.3486 21.1419C68.2742 20.9833 68.237 20.7906 68.237 20.5639C68.237 20.3345 68.2747 20.141 68.3499 19.9832C68.4261 19.8246 68.5287 19.705 68.6577 19.6244C68.7868 19.5428 68.9306 19.5021 69.0892 19.5021C69.2102 19.5021 69.3096 19.5227 69.3876 19.5639C69.4655 19.6042 69.5274 19.653 69.5731 19.7104C69.6188 19.7668 69.6542 19.8202 69.6793 19.8703H69.6994V18.8407H70.1873V21.5935H69.7088V21.2682H69.6793C69.6542 21.3184 69.6179 21.3717 69.5704 21.4282C69.5229 21.4837 69.4602 21.5312 69.3822 21.5707C69.3043 21.6101 69.2061 21.6298 69.0878 21.6298ZM69.2236 21.2306C69.3267 21.2306 69.4145 21.2028 69.4871 21.1473C69.5596 21.0908 69.6147 21.0124 69.6524 20.912C69.69 20.8117 69.7088 20.6947 69.7088 20.5612C69.7088 20.4277 69.69 20.3117 69.6524 20.2131C69.6156 20.1145 69.561 20.0379 69.4884 19.9832C69.4167 19.9286 69.3284 19.9013 69.2236 19.9013C69.1152 19.9013 69.0247 19.9295 68.9521 19.9859C68.8795 20.0424 68.8248 20.1203 68.7881 20.2198C68.7514 20.3193 68.733 20.4331 68.733 20.5612C68.733 20.6903 68.7514 20.8054 68.7881 20.9067C68.8257 21.007 68.8809 21.0863 68.9534 21.1446C69.0269 21.2019 69.117 21.2306 69.2236 21.2306ZM71.6064 21.6338C71.4048 21.6338 71.23 21.5895 71.0822 21.5008C70.9343 21.412 70.8196 21.2879 70.7381 21.1284C70.6574 20.9689 70.6171 20.7826 70.6171 20.5693C70.6171 20.356 70.6574 20.1692 70.7381 20.0088C70.8196 19.8484 70.9343 19.7238 71.0822 19.6351C71.23 19.5464 71.4048 19.5021 71.6064 19.5021C71.808 19.5021 71.9827 19.5464 72.1306 19.6351C72.2785 19.7238 72.3927 19.8484 72.4734 20.0088C72.5549 20.1692 72.5957 20.356 72.5957 20.5693C72.5957 20.7826 72.5549 20.9689 72.4734 21.1284C72.3927 21.2879 72.2785 21.412 72.1306 21.5008C71.9827 21.5895 71.808 21.6338 71.6064 21.6338ZM71.6091 21.244C71.7184 21.244 71.8098 21.214 71.8833 21.154C71.9568 21.093 72.0114 21.0115 72.0473 20.9093C72.084 20.8072 72.1024 20.6934 72.1024 20.5679C72.1024 20.4416 72.084 20.3273 72.0473 20.2252C72.0114 20.1221 71.9568 20.0401 71.8833 19.9792C71.8098 19.9183 71.7184 19.8878 71.6091 19.8878C71.4971 19.8878 71.4039 19.9183 71.3295 19.9792C71.256 20.0401 71.2009 20.1221 71.1642 20.2252C71.1283 20.3273 71.1104 20.4416 71.1104 20.5679C71.1104 20.6934 71.1283 20.8072 71.1642 20.9093C71.2009 21.0115 71.256 21.093 71.3295 21.154C71.4039 21.214 71.4971 21.244 71.6091 21.244ZM73.4952 18.8407V21.5935H73.0087V18.8407H73.4952ZM74.8961 21.6338C74.6945 21.6338 74.5198 21.5895 74.3719 21.5008C74.2241 21.412 74.1094 21.2879 74.0278 21.1284C73.9472 20.9689 73.9069 20.7826 73.9069 20.5693C73.9069 20.356 73.9472 20.1692 74.0278 20.0088C74.1094 19.8484 74.2241 19.7238 74.3719 19.6351C74.5198 19.5464 74.6945 19.5021 74.8961 19.5021C75.0978 19.5021 75.2725 19.5464 75.4203 19.6351C75.5682 19.7238 75.6824 19.8484 75.7631 20.0088C75.8446 20.1692 75.8854 20.356 75.8854 20.5693C75.8854 20.7826 75.8446 20.9689 75.7631 21.1284C75.6824 21.2879 75.5682 21.412 75.4203 21.5008C75.2725 21.5895 75.0978 21.6338 74.8961 21.6338ZM74.8988 21.244C75.0081 21.244 75.0995 21.214 75.173 21.154C75.2465 21.093 75.3012 21.0115 75.337 20.9093C75.3737 20.8072 75.3921 20.6934 75.3921 20.5679C75.3921 20.4416 75.3737 20.3273 75.337 20.2252C75.3012 20.1221 75.2465 20.0401 75.173 19.9792C75.0995 19.9183 75.0081 19.8878 74.8988 19.8878C74.7868 19.8878 74.6936 19.9183 74.6192 19.9792C74.5458 20.0401 74.4907 20.1221 74.4539 20.2252C74.4181 20.3273 74.4002 20.4416 74.4002 20.5679C74.4002 20.6934 74.4181 20.8072 74.4539 20.9093C74.4907 21.0115 74.5458 21.093 74.6192 21.154C74.6936 21.214 74.7868 21.244 74.8988 21.244ZM76.2984 21.5935V19.5289H76.7702V19.873H76.7917C76.8293 19.7539 76.8938 19.662 76.9852 19.5975C77.0775 19.5321 77.1828 19.4994 77.3011 19.4994C77.328 19.4994 77.358 19.5007 77.3912 19.5034C77.4252 19.5052 77.4534 19.5083 77.4758 19.5128V19.9604C77.4552 19.9532 77.4225 19.947 77.3777 19.9416C77.3338 19.9353 77.2912 19.9322 77.25 19.9322C77.1613 19.9322 77.0816 19.9514 77.0108 19.99C76.9409 20.0276 76.8858 20.08 76.8454 20.1472C76.8051 20.2144 76.785 20.2919 76.785 20.3798V21.5935H76.2984ZM80.3697 20.0746L79.9262 20.123C79.9136 20.0782 79.8917 20.0361 79.8603 19.9967C79.8298 19.9573 79.7886 19.9255 79.7367 19.9013C79.6847 19.8771 79.6211 19.865 79.5458 19.865C79.4445 19.865 79.3594 19.8869 79.2904 19.9308C79.2223 19.9747 79.1887 20.0316 79.1896 20.1015C79.1887 20.1616 79.2107 20.2104 79.2555 20.248C79.3012 20.2857 79.3764 20.3166 79.4813 20.3408L79.8334 20.4161C80.0288 20.4582 80.1739 20.5249 80.2689 20.6163C80.3648 20.7077 80.4132 20.8274 80.4141 20.9752C80.4132 21.1051 80.3751 21.2198 80.2998 21.3193C80.2255 21.4179 80.122 21.4949 79.9893 21.5505C79.8567 21.6061 79.7044 21.6338 79.5323 21.6338C79.2796 21.6338 79.0762 21.581 78.9221 21.4752C78.768 21.3686 78.6761 21.2203 78.6466 21.0303L79.121 20.9846C79.1425 21.0778 79.1882 21.1482 79.2581 21.1956C79.328 21.2431 79.419 21.2669 79.531 21.2669C79.6466 21.2669 79.7393 21.2431 79.8092 21.1956C79.88 21.1482 79.9154 21.0895 79.9154 21.0196C79.9154 20.9604 79.8926 20.9116 79.8469 20.8731C79.8021 20.8345 79.7322 20.805 79.6372 20.7843L79.285 20.7104C79.087 20.6692 78.9405 20.5998 78.8455 20.5021C78.7505 20.4035 78.7035 20.279 78.7044 20.1284C78.7035 20.0012 78.738 19.891 78.8079 19.7978C78.8787 19.7037 78.9768 19.6311 79.1022 19.58C79.2286 19.528 79.3742 19.5021 79.5391 19.5021C79.781 19.5021 79.9714 19.5536 80.1103 19.6566C80.2501 19.7597 80.3366 19.899 80.3697 20.0746ZM80.8153 21.5935V19.5289H81.3019V21.5935H80.8153ZM81.0599 19.2359C80.9829 19.2359 80.9166 19.2104 80.861 19.1593C80.8055 19.1073 80.7777 19.0451 80.7777 18.9725C80.7777 18.899 80.8055 18.8367 80.861 18.7856C80.9166 18.7337 80.9829 18.7077 81.0599 18.7077C81.1379 18.7077 81.2042 18.7337 81.2589 18.7856C81.3144 18.8367 81.3422 18.899 81.3422 18.9725C81.3422 19.0451 81.3144 19.1073 81.2589 19.1593C81.2042 19.2104 81.1379 19.2359 81.0599 19.2359ZM82.8332 19.5289V19.9053H81.6463V19.5289H82.8332ZM81.9393 19.0343H82.4259V20.9725C82.4259 21.0379 82.4358 21.0881 82.4555 21.1231C82.4761 21.1571 82.503 21.1804 82.5361 21.193C82.5693 21.2055 82.606 21.2118 82.6463 21.2118C82.6768 21.2118 82.7046 21.2095 82.7297 21.2051C82.7557 21.2006 82.7754 21.1965 82.7888 21.193L82.8708 21.5733C82.8448 21.5823 82.8076 21.5922 82.7592 21.6029C82.7118 21.6137 82.6535 21.6199 82.5845 21.6217C82.4626 21.6253 82.3529 21.6069 82.2552 21.5666C82.1575 21.5254 82.08 21.4618 82.0227 21.3758C81.9662 21.2897 81.9384 21.1822 81.9393 21.0532V19.0343ZM84.7731 21.6352C84.6422 21.6352 84.5244 21.6119 84.4196 21.5653C84.3156 21.5178 84.2332 21.4479 84.1723 21.3556C84.1122 21.2633 84.0822 21.1495 84.0822 21.0142C84.0822 20.8977 84.1037 20.8014 84.1467 20.7252C84.1897 20.649 84.2484 20.5881 84.3228 20.5424C84.3972 20.4967 84.481 20.4622 84.5741 20.4389C84.6682 20.4147 84.7655 20.3972 84.8658 20.3865C84.9868 20.3739 85.0849 20.3627 85.1602 20.3529C85.2355 20.3421 85.2901 20.326 85.3242 20.3045C85.3591 20.2821 85.3766 20.2476 85.3766 20.201V20.1929C85.3766 20.0917 85.3466 20.0133 85.2865 19.9577C85.2265 19.9022 85.14 19.8744 85.0271 19.8744C84.9079 19.8744 84.8134 19.9004 84.7435 19.9523C84.6745 20.0043 84.6279 20.0657 84.6037 20.1365L84.1494 20.072C84.1852 19.9465 84.2444 19.8417 84.3268 19.7574C84.4093 19.6723 84.5101 19.6087 84.6293 19.5666C84.7484 19.5236 84.8802 19.5021 85.0244 19.5021C85.1239 19.5021 85.2229 19.5137 85.3215 19.537C85.42 19.5603 85.5101 19.5988 85.5916 19.6526C85.6732 19.7055 85.7386 19.7776 85.7879 19.869C85.8381 19.9604 85.8632 20.0746 85.8632 20.2117V21.5935H85.3954V21.3099H85.3793C85.3497 21.3672 85.308 21.421 85.2543 21.4712C85.2014 21.5205 85.1346 21.5604 85.054 21.5908C84.9742 21.6204 84.8806 21.6352 84.7731 21.6352ZM84.8994 21.2776C84.9971 21.2776 85.0818 21.2584 85.1535 21.2198C85.2251 21.1804 85.2803 21.1284 85.3188 21.0639C85.3582 20.9994 85.3779 20.9291 85.3779 20.8529V20.6096C85.3627 20.6222 85.3367 20.6338 85.3 20.6446C85.2641 20.6553 85.2238 20.6647 85.179 20.6728C85.1342 20.6808 85.0898 20.688 85.0459 20.6943C85.002 20.7006 84.9639 20.7059 84.9317 20.7104C84.8591 20.7203 84.7941 20.7364 84.7368 20.7588C84.6794 20.7812 84.6342 20.8126 84.601 20.8529C84.5679 20.8923 84.5513 20.9434 84.5513 21.0061C84.5513 21.0957 84.584 21.1634 84.6494 21.2091C84.7148 21.2548 84.7982 21.2776 84.8994 21.2776ZM86.3524 21.5935V19.5289H86.8175V19.8798H86.8417C86.8847 19.7615 86.9559 19.6692 87.0554 19.6029C87.1549 19.5357 87.2736 19.5021 87.4116 19.5021C87.5514 19.5021 87.6692 19.5361 87.7651 19.6042C87.8619 19.6714 87.93 19.7633 87.9694 19.8798H87.9909C88.0366 19.7651 88.1137 19.6737 88.2221 19.6055C88.3314 19.5366 88.4609 19.5021 88.6105 19.5021C88.8005 19.5021 88.9555 19.5621 89.0756 19.6822C89.1957 19.8022 89.2557 19.9774 89.2557 20.2077V21.5935H88.7678V20.283C88.7678 20.1548 88.7338 20.0612 88.6657 20.0021C88.5976 19.942 88.5142 19.912 88.4156 19.912C88.2983 19.912 88.2064 19.9487 88.1401 20.0222C88.0747 20.0948 88.042 20.1893 88.042 20.3058V21.5935H87.5648V20.2628C87.5648 20.1562 87.5326 20.0711 87.468 20.0074C87.4044 19.9438 87.3211 19.912 87.218 19.912C87.1481 19.912 87.0845 19.9299 87.0272 19.9658C86.9698 20.0007 86.9241 20.0505 86.8901 20.115C86.856 20.1786 86.839 20.253 86.839 20.3381V21.5935H86.3524ZM90.6634 21.6338C90.4564 21.6338 90.2776 21.5908 90.127 21.5048C89.9774 21.4179 89.8623 21.2951 89.7816 21.1365C89.701 20.977 89.6606 20.7893 89.6606 20.5733C89.6606 20.3609 89.701 20.1746 89.7816 20.0142C89.8632 19.8529 89.977 19.7274 90.123 19.6378C90.2691 19.5473 90.4407 19.5021 90.6378 19.5021C90.7651 19.5021 90.8851 19.5227 90.998 19.5639C91.1118 19.6042 91.2122 19.6669 91.2991 19.7521C91.3869 19.8372 91.4559 19.9456 91.5061 20.0773C91.5563 20.2082 91.5814 20.3641 91.5814 20.5451V20.6943H89.8891V20.3663H91.115C91.1141 20.2731 91.0939 20.1902 91.0545 20.1177C91.0151 20.0442 90.96 19.9864 90.8892 19.9443C90.8193 19.9022 90.7377 19.8811 90.6445 19.8811C90.5451 19.8811 90.4577 19.9053 90.3824 19.9537C90.3072 20.0012 90.2485 20.0639 90.2064 20.1419C90.1651 20.2189 90.1441 20.3036 90.1432 20.3959V20.6822C90.1432 20.8023 90.1651 20.9053 90.209 20.9913C90.2529 21.0765 90.3143 21.1419 90.3932 21.1876C90.472 21.2324 90.5643 21.2548 90.6701 21.2548C90.7409 21.2548 90.8049 21.2449 90.8623 21.2252C90.9196 21.2046 90.9694 21.1746 91.0115 21.1352C91.0536 21.0957 91.0854 21.0469 91.1069 20.9887L91.5612 21.0397C91.5326 21.1598 91.4779 21.2646 91.3972 21.3543C91.3175 21.443 91.2153 21.512 91.0908 21.5612C90.9662 21.6096 90.8238 21.6338 90.6634 21.6338ZM93.024 19.5289V19.9053H91.8371V19.5289H93.024ZM92.1301 19.0343H92.6167V20.9725C92.6167 21.0379 92.6266 21.0881 92.6463 21.1231C92.6669 21.1571 92.6938 21.1804 92.7269 21.193C92.7601 21.2055 92.7968 21.2118 92.8371 21.2118C92.8676 21.2118 92.8954 21.2095 92.9205 21.2051C92.9465 21.2006 92.9662 21.1965 92.9796 21.193L93.0616 21.5733C93.0356 21.5823 92.9984 21.5922 92.95 21.6029C92.9025 21.6137 92.8443 21.6199 92.7753 21.6217C92.6534 21.6253 92.5437 21.6069 92.446 21.5666C92.3483 21.5254 92.2708 21.4618 92.2135 21.3758C92.157 21.2897 92.1292 21.1822 92.1301 21.0532V19.0343Z" fill="white" fill-opacity="0.6"/>
<defs>
<filter id="filter0_d_3485_2852" x="-2.04673" y="0.635514" width="30.281" height="30.2805" filterUnits="userSpaceOnUse" color-interpolation-filters="sRGB">
<feFlood flood-opacity="0" result="BackgroundImageFix"/>
<feColorMatrix in="SourceAlpha" type="matrix" values="0 0 0 0 0 0 0 0 0 0 0 0 0 0 0 0 0 0 127 0" result="hardAlpha"/>
<feOffset dy="1.68224"/>
<feGaussianBlur stdDeviation="2.52336"/>
<feComposite in2="hardAlpha" operator="out"/>
<feColorMatrix type="matrix" values="0 0 0 0 0.129412 0 0 0 0 0.533333 0 0 0 0 0.905882 0 0 0 0.3 0"/>
<feBlend mode="normal" in2="BackgroundImageFix" result="effect1_dropShadow_3485_2852"/>
<feBlend mode="normal" in="SourceGraphic" in2="effect1_dropShadow_3485_2852" result="shape"/>
</filter>
<filter id="filter1_d_3485_2852" x="11.4103" y="0.635514" width="30.281" height="30.2805" filterUnits="userSpaceOnUse" color-interpolation-filters="sRGB">
<feFlood flood-opacity="0" result="BackgroundImageFix"/>
<feColorMatrix in="SourceAlpha" type="matrix" values="0 0 0 0 0 0 0 0 0 0 0 0 0 0 0 0 0 0 127 0" result="hardAlpha"/>
<feOffset dy="1.68224"/>
<feGaussianBlur stdDeviation="2.52336"/>
<feComposite in2="hardAlpha" operator="out"/>
<feColorMatrix type="matrix" values="0 0 0 0 0.129412 0 0 0 0 0.533333 0 0 0 0 0.905882 0 0 0 0.3 0"/>
<feBlend mode="normal" in2="BackgroundImageFix" result="effect1_dropShadow_3485_2852"/>
<feBlend mode="normal" in="SourceGraphic" in2="effect1_dropShadow_3485_2852" result="shape"/>
</filter>
</defs>
</svg>
