<svg width="91" height="31" viewBox="0 0 91 31" fill="none" xmlns="http://www.w3.org/2000/svg">
<g filter="url(#filter0_d_3307_1852)">
<circle cx="10.0935" cy="14.0935" r="10.0935" fill="#2188E7" fill-opacity="0.5" shape-rendering="crispEdges"/>
<circle cx="10.0935" cy="14.0935" r="9.88318" stroke="white" stroke-width="0.420561" shape-rendering="crispEdges"/>
</g>
<g filter="url(#filter1_d_3307_1852)">
<circle cx="23.5505" cy="14.0935" r="10.0935" fill="#2188E7" fill-opacity="0.5" shape-rendering="crispEdges"/>
<circle cx="23.5505" cy="14.0935" r="9.88318" stroke="white" stroke-width="0.420561" shape-rendering="crispEdges"/>
</g>
<path d="M51.7533 14.5934V7.25275H53.0831V13.4787H56.3162V14.5934H51.7533ZM63.7438 10.9231C63.7438 11.714 63.5957 12.3915 63.2994 12.9554C63.0054 13.517 62.604 13.9471 62.095 14.2458C61.5884 14.5445 61.0137 14.6938 60.371 14.6938C59.7282 14.6938 59.1523 14.5445 58.6433 14.2458C58.1367 13.9447 57.7353 13.5134 57.439 12.9518C57.1451 12.3879 56.9981 11.7116 56.9981 10.9231C56.9981 10.1322 57.1451 9.45591 57.439 8.89437C57.7353 8.33043 58.1367 7.89912 58.6433 7.60043C59.1523 7.30173 59.7282 7.15239 60.371 7.15239C61.0137 7.15239 61.5884 7.30173 62.095 7.60043C62.604 7.89912 63.0054 8.33043 63.2994 8.89437C63.5957 9.45591 63.7438 10.1322 63.7438 10.9231ZM62.4069 10.9231C62.4069 10.3663 62.3196 9.89678 62.1452 9.51446C61.9732 9.12974 61.7342 8.83941 61.4283 8.64347C61.1225 8.44513 60.77 8.34597 60.371 8.34597C59.9719 8.34597 59.6194 8.44513 59.3136 8.64347C59.0077 8.83941 58.7676 9.12974 58.5931 9.51446C58.4211 9.89678 58.3351 10.3663 58.3351 10.9231C58.3351 11.4799 58.4211 11.9506 58.5931 12.3353C58.7676 12.7176 59.0077 13.008 59.3136 13.2063C59.6194 13.4023 59.9719 13.5002 60.371 13.5002C60.77 13.5002 61.1225 13.4023 61.4283 13.2063C61.7342 13.008 61.9732 12.7176 62.1452 12.3353C62.3196 11.9506 62.4069 11.4799 62.4069 10.9231ZM69.9187 9.5969C69.859 9.40334 69.7765 9.2301 69.6714 9.07717C69.5686 8.92185 69.4444 8.78923 69.2986 8.67931C69.1552 8.56939 68.9904 8.48695 68.804 8.43199C68.6176 8.37464 68.4145 8.34597 68.1946 8.34597C67.8004 8.34597 67.4491 8.44513 67.1409 8.64347C66.8326 8.8418 66.5901 9.13332 66.4132 9.51804C66.2388 9.90037 66.1516 10.3663 66.1516 10.9159C66.1516 11.4703 66.2388 11.9398 66.4132 12.3246C66.5877 12.7093 66.8302 13.002 67.1409 13.2027C67.4515 13.4011 67.8123 13.5002 68.2233 13.5002C68.5961 13.5002 68.9187 13.4285 69.1911 13.2852C69.4659 13.1418 69.6774 12.9387 69.8255 12.6758C69.9737 12.4106 70.0477 12.0999 70.0477 11.7439L70.3488 11.7905H68.3559V10.751H71.3345V11.6328C71.3345 12.2612 71.2007 12.8049 70.9331 13.2637C70.6654 13.7225 70.2974 14.0761 69.8291 14.3246C69.3607 14.5707 68.8231 14.6938 68.2162 14.6938C67.5399 14.6938 66.9461 14.5421 66.4347 14.2386C65.9258 13.9327 65.5279 13.499 65.2412 12.9375C64.9568 12.3736 64.8146 11.7045 64.8146 10.9303C64.8146 10.3377 64.8983 9.80837 65.0655 9.34241C65.2352 8.87645 65.4718 8.48098 65.7752 8.156C66.0787 7.82863 66.4347 7.58012 66.8434 7.41046C67.252 7.23841 67.6964 7.15239 68.1767 7.15239C68.5829 7.15239 68.9617 7.21213 69.313 7.3316C69.6642 7.44869 69.9761 7.61596 70.2485 7.83341C70.5233 8.05086 70.7491 8.30893 70.9259 8.60762C71.1027 8.90632 71.2186 9.23607 71.2736 9.5969H69.9187ZM79.1797 10.9231C79.1797 11.714 79.0316 12.3915 78.7352 12.9554C78.4413 13.517 78.0399 13.9471 77.5309 14.2458C77.0243 14.5445 76.4496 14.6938 75.8069 14.6938C75.1641 14.6938 74.5882 14.5445 74.0792 14.2458C73.5726 13.9447 73.1712 13.5134 72.8749 12.9518C72.581 12.3879 72.434 11.7116 72.434 10.9231C72.434 10.1322 72.581 9.45591 72.8749 8.89437C73.1712 8.33043 73.5726 7.89912 74.0792 7.60043C74.5882 7.30173 75.1641 7.15239 75.8069 7.15239C76.4496 7.15239 77.0243 7.30173 77.5309 7.60043C78.0399 7.89912 78.4413 8.33043 78.7352 8.89437C79.0316 9.45591 79.1797 10.1322 79.1797 10.9231ZM77.8428 10.9231C77.8428 10.3663 77.7555 9.89678 77.5811 9.51446C77.409 9.12974 77.1701 8.83941 76.8642 8.64347C76.5584 8.44513 76.2059 8.34597 75.8069 8.34597C75.4078 8.34597 75.0553 8.44513 74.7495 8.64347C74.4436 8.83941 74.2035 9.12974 74.029 9.51446C73.857 9.89678 73.771 10.3663 73.771 10.9231C73.771 11.4799 73.857 11.9506 74.029 12.3353C74.2035 12.7176 74.4436 13.008 74.7495 13.2063C75.0553 13.4023 75.4078 13.5002 75.8069 13.5002C76.2059 13.5002 76.5584 13.4023 76.8642 13.2063C77.1701 13.008 77.409 12.7176 77.5811 12.3353C77.7555 11.9506 77.8428 11.4799 77.8428 10.9231Z" fill="black"/>
<path d="M40.8328 21.5934V18.8407H41.3315V21.1754H42.5439V21.5934H40.8328ZM43.8557 21.6338C43.6541 21.6338 43.4794 21.5894 43.3315 21.5007C43.1837 21.412 43.069 21.2879 42.9874 21.1284C42.9068 20.9689 42.8665 20.7825 42.8665 20.5692C42.8665 20.356 42.9068 20.1691 42.9874 20.0087C43.069 19.8483 43.1837 19.7238 43.3315 19.6351C43.4794 19.5463 43.6541 19.502 43.8557 19.502C44.0574 19.502 44.2321 19.5463 44.3799 19.6351C44.5278 19.7238 44.642 19.8483 44.7227 20.0087C44.8042 20.1691 44.845 20.356 44.845 20.5692C44.845 20.7825 44.8042 20.9689 44.7227 21.1284C44.642 21.2879 44.5278 21.412 44.3799 21.5007C44.2321 21.5894 44.0574 21.6338 43.8557 21.6338ZM43.8584 21.244C43.9677 21.244 44.0591 21.214 44.1326 21.1539C44.2061 21.093 44.2608 21.0114 44.2966 20.9093C44.3333 20.8071 44.3517 20.6933 44.3517 20.5679C44.3517 20.4415 44.3333 20.3273 44.2966 20.2251C44.2608 20.1221 44.2061 20.0401 44.1326 19.9792C44.0591 19.9182 43.9677 19.8878 43.8584 19.8878C43.7464 19.8878 43.6532 19.9182 43.5788 19.9792C43.5054 20.0401 43.4503 20.1221 43.4135 20.2251C43.3777 20.3273 43.3598 20.4415 43.3598 20.5679C43.3598 20.6933 43.3777 20.8071 43.4135 20.9093C43.4503 21.0114 43.5054 21.093 43.5788 21.1539C43.6532 21.214 43.7464 21.244 43.8584 21.244ZM45.258 21.5934V19.5289H45.7298V19.873H45.7513C45.7889 19.7538 45.8534 19.6619 45.9448 19.5974C46.0371 19.532 46.1424 19.4993 46.2607 19.4993C46.2876 19.4993 46.3176 19.5006 46.3508 19.5033C46.3848 19.5051 46.413 19.5083 46.4354 19.5127V19.9603C46.4148 19.9532 46.3821 19.9469 46.3373 19.9415C46.2934 19.9352 46.2508 19.9321 46.2096 19.9321C46.1209 19.9321 46.0412 19.9514 45.9704 19.9899C45.9005 20.0275 45.8454 20.08 45.805 20.1472C45.7647 20.2144 45.7446 20.2919 45.7446 20.3797V21.5934H45.258ZM47.5877 21.6338C47.3807 21.6338 47.2019 21.5908 47.0514 21.5047C46.9017 21.4178 46.7866 21.295 46.7059 21.1364C46.6253 20.9769 46.585 20.7892 46.585 20.5733C46.585 20.3609 46.6253 20.1745 46.7059 20.0141C46.7875 19.8528 46.9013 19.7274 47.0474 19.6377C47.1934 19.5472 47.365 19.502 47.5622 19.502C47.6894 19.502 47.8095 19.5226 47.9224 19.5638C48.0362 19.6041 48.1365 19.6669 48.2235 19.752C48.3113 19.8371 48.3803 19.9456 48.4305 20.0773C48.4806 20.2081 48.5057 20.364 48.5057 20.545V20.6942H46.8135V20.3663H48.0393C48.0384 20.2731 48.0183 20.1902 47.9788 20.1176C47.9394 20.0441 47.8843 19.9863 47.8135 19.9442C47.7436 19.9021 47.6621 19.881 47.5689 19.881C47.4694 19.881 47.382 19.9052 47.3068 19.9536C47.2315 20.0011 47.1728 20.0638 47.1307 20.1418C47.0895 20.2189 47.0684 20.3035 47.0675 20.3958V20.6821C47.0675 20.8022 47.0895 20.9053 47.1334 20.9913C47.1773 21.0764 47.2387 21.1418 47.3175 21.1875C47.3964 21.2323 47.4887 21.2547 47.5944 21.2547C47.6652 21.2547 47.7293 21.2449 47.7866 21.2252C47.844 21.2045 47.8937 21.1745 47.9358 21.1351C47.9779 21.0957 48.0097 21.0468 48.0313 20.9886L48.4856 21.0397C48.4569 21.1597 48.4022 21.2646 48.3216 21.3542C48.2418 21.4429 48.1397 21.5119 48.0151 21.5612C47.8906 21.6096 47.7481 21.6338 47.5877 21.6338ZM48.9174 21.5934V19.5289H49.3824V19.8797H49.4066C49.4496 19.7614 49.5209 19.6691 49.6203 19.6028C49.7198 19.5356 49.8385 19.502 49.9765 19.502C50.1163 19.502 50.2342 19.536 50.33 19.6041C50.4268 19.6714 50.4949 19.7632 50.5343 19.8797H50.5558C50.6015 19.765 50.6786 19.6736 50.787 19.6055C50.8964 19.5365 51.0258 19.502 51.1755 19.502C51.3655 19.502 51.5205 19.562 51.6406 19.6821C51.7606 19.8022 51.8207 19.9774 51.8207 20.2077V21.5934H51.3328V20.2829C51.3328 20.1548 51.2987 20.0611 51.2306 20.002C51.1625 19.942 51.0792 19.9119 50.9806 19.9119C50.8632 19.9119 50.7714 19.9487 50.705 20.0222C50.6396 20.0947 50.6069 20.1893 50.6069 20.3058V21.5934H50.1298V20.2628C50.1298 20.1561 50.0975 20.071 50.033 20.0074C49.9694 19.9438 49.886 19.9119 49.783 19.9119C49.7131 19.9119 49.6495 19.9299 49.5921 19.9657C49.5348 20.0007 49.4891 20.0504 49.455 20.1149C49.421 20.1785 49.4039 20.2529 49.4039 20.338V21.5934H48.9174ZM53.2532 21.5934V19.5289H53.7397V21.5934H53.2532ZM53.4978 19.2359C53.4207 19.2359 53.3544 19.2103 53.2989 19.1592C53.2433 19.1073 53.2155 19.045 53.2155 18.9724C53.2155 18.8989 53.2433 18.8367 53.2989 18.7856C53.3544 18.7336 53.4207 18.7076 53.4978 18.7076C53.5758 18.7076 53.6421 18.7336 53.6967 18.7856C53.7523 18.8367 53.7801 18.8989 53.7801 18.9724C53.7801 19.045 53.7523 19.1073 53.6967 19.1592C53.6421 19.2103 53.5758 19.2359 53.4978 19.2359ZM54.2401 22.3677V19.5289H54.7186V19.8703H54.7468C54.7719 19.8201 54.8073 19.7668 54.853 19.7103C54.8987 19.653 54.9605 19.6041 55.0385 19.5638C55.1165 19.5226 55.2159 19.502 55.3369 19.502C55.4964 19.502 55.6402 19.5428 55.7684 19.6243C55.8974 19.705 55.9995 19.8246 56.0748 19.9832C56.151 20.1409 56.1891 20.3345 56.1891 20.5638C56.1891 20.7906 56.1519 20.9832 56.0775 21.1418C56.0031 21.3004 55.9019 21.4214 55.7737 21.5047C55.6456 21.5881 55.5004 21.6297 55.3382 21.6297C55.22 21.6297 55.1218 21.61 55.0439 21.5706C54.9659 21.5312 54.9032 21.4837 54.8557 21.4281C54.8091 21.3717 54.7728 21.3183 54.7468 21.2682H54.7267V22.3677H54.2401ZM54.7172 20.5612C54.7172 20.6947 54.7361 20.8116 54.7737 20.912C54.8122 21.0123 54.8673 21.0907 54.939 21.1472C55.0116 21.2028 55.0994 21.2305 55.2025 21.2305C55.31 21.2305 55.4001 21.2019 55.4726 21.1445C55.5452 21.0863 55.5999 21.007 55.6366 20.9066C55.6743 20.8053 55.6931 20.6902 55.6931 20.5612C55.6931 20.433 55.6747 20.3192 55.638 20.2198C55.6012 20.1203 55.5466 20.0423 55.474 19.9859C55.4014 19.9294 55.3109 19.9012 55.2025 19.9012C55.0985 19.9012 55.0103 19.9285 54.9377 19.9832C54.8651 20.0378 54.81 20.1145 54.7724 20.213C54.7356 20.3116 54.7172 20.4276 54.7172 20.5612ZM58.2375 20.0746L57.7939 20.123C57.7814 20.0782 57.7594 20.0361 57.7281 19.9966C57.6976 19.9572 57.6564 19.9254 57.6044 19.9012C57.5524 19.877 57.4888 19.8649 57.4136 19.8649C57.3123 19.8649 57.2272 19.8869 57.1582 19.9308C57.0901 19.9747 57.0565 20.0316 57.0574 20.1015C57.0565 20.1615 57.0784 20.2103 57.1232 20.248C57.1689 20.2856 57.2442 20.3165 57.349 20.3407L57.7012 20.416C57.8965 20.4581 58.0417 20.5249 58.1367 20.6163C58.2326 20.7077 58.281 20.8273 58.2819 20.9751C58.281 21.1051 58.2429 21.2198 58.1676 21.3192C58.0932 21.4178 57.9897 21.4949 57.8571 21.5504C57.7245 21.606 57.5722 21.6338 57.4001 21.6338C57.1474 21.6338 56.944 21.5809 56.7899 21.4752C56.6358 21.3685 56.5439 21.2202 56.5143 21.0303L56.9888 20.9846C57.0103 21.0778 57.056 21.1481 57.1259 21.1956C57.1958 21.2431 57.2868 21.2668 57.3988 21.2668C57.5144 21.2668 57.6071 21.2431 57.677 21.1956C57.7478 21.1481 57.7832 21.0894 57.7832 21.0195C57.7832 20.9604 57.7603 20.9115 57.7146 20.873C57.6698 20.8345 57.5999 20.8049 57.505 20.7843L57.1528 20.7104C56.9548 20.6691 56.8083 20.5997 56.7133 20.502C56.6183 20.4034 56.5712 20.2789 56.5721 20.1284C56.5712 20.0011 56.6057 19.8909 56.6756 19.7977C56.7464 19.7036 56.8445 19.631 56.97 19.58C57.0963 19.528 57.242 19.502 57.4068 19.502C57.6488 19.502 57.8392 19.5535 57.9781 19.6566C58.1179 19.7596 58.2043 19.899 58.2375 20.0746ZM59.999 20.7251V19.5289H60.4855V21.5934H60.0138V21.2265H59.9923C59.9457 21.3421 59.869 21.4366 59.7624 21.5101C59.6567 21.5836 59.5263 21.6203 59.3713 21.6203C59.236 21.6203 59.1163 21.5903 59.0124 21.5303C58.9093 21.4693 58.8287 21.3811 58.7704 21.2655C58.7122 21.149 58.6831 21.0083 58.6831 20.8434V19.5289H59.1697V20.7682C59.1697 20.899 59.2055 21.0029 59.2772 21.08C59.3489 21.1571 59.443 21.1956 59.5594 21.1956C59.6311 21.1956 59.7006 21.1781 59.7678 21.1432C59.835 21.1082 59.8901 21.0562 59.9331 20.9872C59.977 20.9174 59.999 20.83 59.999 20.7251ZM60.9859 21.5934V19.5289H61.451V19.8797H61.4752C61.5182 19.7614 61.5894 19.6691 61.6889 19.6028C61.7883 19.5356 61.9071 19.502 62.0451 19.502C62.1849 19.502 62.3027 19.536 62.3986 19.6041C62.4953 19.6714 62.5634 19.7632 62.6029 19.8797H62.6244C62.6701 19.765 62.7471 19.6736 62.8556 19.6055C62.9649 19.5365 63.0944 19.502 63.244 19.502C63.434 19.502 63.589 19.562 63.7091 19.6821C63.8292 19.8022 63.8892 19.9774 63.8892 20.2077V21.5934H63.4013V20.2829C63.4013 20.1548 63.3672 20.0611 63.2991 20.002C63.231 19.942 63.1477 19.9119 63.0491 19.9119C62.9317 19.9119 62.8399 19.9487 62.7736 20.0222C62.7082 20.0947 62.6755 20.1893 62.6755 20.3058V21.5934H62.1983V20.2628C62.1983 20.1561 62.166 20.071 62.1015 20.0074C62.0379 19.9438 61.9546 19.9119 61.8515 19.9119C61.7816 19.9119 61.718 19.9299 61.6606 19.9657C61.6033 20.0007 61.5576 20.0504 61.5235 20.1149C61.4895 20.1785 61.4725 20.2529 61.4725 20.338V21.5934H60.9859ZM66.0878 21.6297C65.9257 21.6297 65.7805 21.5881 65.6524 21.5047C65.5242 21.4214 65.423 21.3004 65.3486 21.1418C65.2742 20.9832 65.237 20.7906 65.237 20.5638C65.237 20.3345 65.2747 20.1409 65.3499 19.9832C65.4261 19.8246 65.5287 19.705 65.6577 19.6243C65.7868 19.5428 65.9306 19.502 66.0892 19.502C66.2102 19.502 66.3096 19.5226 66.3876 19.5638C66.4655 19.6041 66.5274 19.653 66.5731 19.7103C66.6188 19.7668 66.6542 19.8201 66.6793 19.8703H66.6994V18.8407H67.1873V21.5934H66.7088V21.2682H66.6793C66.6542 21.3183 66.6179 21.3717 66.5704 21.4281C66.5229 21.4837 66.4602 21.5312 66.3822 21.5706C66.3043 21.61 66.2061 21.6297 66.0878 21.6297ZM66.2236 21.2305C66.3267 21.2305 66.4145 21.2028 66.4871 21.1472C66.5596 21.0907 66.6147 21.0123 66.6524 20.912C66.69 20.8116 66.7088 20.6947 66.7088 20.5612C66.7088 20.4276 66.69 20.3116 66.6524 20.213C66.6156 20.1145 66.561 20.0378 66.4884 19.9832C66.4167 19.9285 66.3284 19.9012 66.2236 19.9012C66.1152 19.9012 66.0247 19.9294 65.9521 19.9859C65.8795 20.0423 65.8248 20.1203 65.7881 20.2198C65.7514 20.3192 65.733 20.433 65.733 20.5612C65.733 20.6902 65.7514 20.8053 65.7881 20.9066C65.8257 21.007 65.8809 21.0863 65.9534 21.1445C66.0269 21.2019 66.117 21.2305 66.2236 21.2305ZM68.6064 21.6338C68.4048 21.6338 68.23 21.5894 68.0822 21.5007C67.9343 21.412 67.8196 21.2879 67.7381 21.1284C67.6574 20.9689 67.6171 20.7825 67.6171 20.5692C67.6171 20.356 67.6574 20.1691 67.7381 20.0087C67.8196 19.8483 67.9343 19.7238 68.0822 19.6351C68.23 19.5463 68.4048 19.502 68.6064 19.502C68.808 19.502 68.9827 19.5463 69.1306 19.6351C69.2785 19.7238 69.3927 19.8483 69.4734 20.0087C69.5549 20.1691 69.5957 20.356 69.5957 20.5692C69.5957 20.7825 69.5549 20.9689 69.4734 21.1284C69.3927 21.2879 69.2785 21.412 69.1306 21.5007C68.9827 21.5894 68.808 21.6338 68.6064 21.6338ZM68.6091 21.244C68.7184 21.244 68.8098 21.214 68.8833 21.1539C68.9568 21.093 69.0114 21.0114 69.0473 20.9093C69.084 20.8071 69.1024 20.6933 69.1024 20.5679C69.1024 20.4415 69.084 20.3273 69.0473 20.2251C69.0114 20.1221 68.9568 20.0401 68.8833 19.9792C68.8098 19.9182 68.7184 19.8878 68.6091 19.8878C68.4971 19.8878 68.4039 19.9182 68.3295 19.9792C68.256 20.0401 68.2009 20.1221 68.1642 20.2251C68.1283 20.3273 68.1104 20.4415 68.1104 20.5679C68.1104 20.6933 68.1283 20.8071 68.1642 20.9093C68.2009 21.0114 68.256 21.093 68.3295 21.1539C68.4039 21.214 68.4971 21.244 68.6091 21.244ZM70.4952 18.8407V21.5934H70.0087V18.8407H70.4952ZM71.8961 21.6338C71.6945 21.6338 71.5198 21.5894 71.3719 21.5007C71.2241 21.412 71.1094 21.2879 71.0278 21.1284C70.9472 20.9689 70.9069 20.7825 70.9069 20.5692C70.9069 20.356 70.9472 20.1691 71.0278 20.0087C71.1094 19.8483 71.2241 19.7238 71.3719 19.6351C71.5198 19.5463 71.6945 19.502 71.8961 19.502C72.0978 19.502 72.2725 19.5463 72.4203 19.6351C72.5682 19.7238 72.6824 19.8483 72.7631 20.0087C72.8446 20.1691 72.8854 20.356 72.8854 20.5692C72.8854 20.7825 72.8446 20.9689 72.7631 21.1284C72.6824 21.2879 72.5682 21.412 72.4203 21.5007C72.2725 21.5894 72.0978 21.6338 71.8961 21.6338ZM71.8988 21.244C72.0081 21.244 72.0995 21.214 72.173 21.1539C72.2465 21.093 72.3012 21.0114 72.337 20.9093C72.3737 20.8071 72.3921 20.6933 72.3921 20.5679C72.3921 20.4415 72.3737 20.3273 72.337 20.2251C72.3012 20.1221 72.2465 20.0401 72.173 19.9792C72.0995 19.9182 72.0081 19.8878 71.8988 19.8878C71.7868 19.8878 71.6936 19.9182 71.6192 19.9792C71.5458 20.0401 71.4907 20.1221 71.4539 20.2251C71.4181 20.3273 71.4002 20.4415 71.4002 20.5679C71.4002 20.6933 71.4181 20.8071 71.4539 20.9093C71.4907 21.0114 71.5458 21.093 71.6192 21.1539C71.6936 21.214 71.7868 21.244 71.8988 21.244ZM73.2984 21.5934V19.5289H73.7702V19.873H73.7917C73.8293 19.7538 73.8938 19.6619 73.9852 19.5974C74.0775 19.532 74.1828 19.4993 74.3011 19.4993C74.328 19.4993 74.358 19.5006 74.3912 19.5033C74.4252 19.5051 74.4534 19.5083 74.4758 19.5127V19.9603C74.4552 19.9532 74.4225 19.9469 74.3777 19.9415C74.3338 19.9352 74.2912 19.9321 74.25 19.9321C74.1613 19.9321 74.0816 19.9514 74.0108 19.9899C73.9409 20.0275 73.8858 20.08 73.8454 20.1472C73.8051 20.2144 73.785 20.2919 73.785 20.3797V21.5934H73.2984ZM77.3697 20.0746L76.9262 20.123C76.9136 20.0782 76.8917 20.0361 76.8603 19.9966C76.8298 19.9572 76.7886 19.9254 76.7367 19.9012C76.6847 19.877 76.6211 19.8649 76.5458 19.8649C76.4445 19.8649 76.3594 19.8869 76.2904 19.9308C76.2223 19.9747 76.1887 20.0316 76.1896 20.1015C76.1887 20.1615 76.2107 20.2103 76.2555 20.248C76.3012 20.2856 76.3764 20.3165 76.4813 20.3407L76.8334 20.416C77.0288 20.4581 77.1739 20.5249 77.2689 20.6163C77.3648 20.7077 77.4132 20.8273 77.4141 20.9751C77.4132 21.1051 77.3751 21.2198 77.2998 21.3192C77.2255 21.4178 77.122 21.4949 76.9893 21.5504C76.8567 21.606 76.7044 21.6338 76.5323 21.6338C76.2796 21.6338 76.0762 21.5809 75.9221 21.4752C75.768 21.3685 75.6761 21.2202 75.6466 21.0303L76.121 20.9846C76.1425 21.0778 76.1882 21.1481 76.2581 21.1956C76.328 21.2431 76.419 21.2668 76.531 21.2668C76.6466 21.2668 76.7393 21.2431 76.8092 21.1956C76.88 21.1481 76.9154 21.0894 76.9154 21.0195C76.9154 20.9604 76.8926 20.9115 76.8469 20.873C76.8021 20.8345 76.7322 20.8049 76.6372 20.7843L76.285 20.7104C76.087 20.6691 75.9405 20.5997 75.8455 20.502C75.7505 20.4034 75.7035 20.2789 75.7044 20.1284C75.7035 20.0011 75.738 19.8909 75.8079 19.7977C75.8787 19.7036 75.9768 19.631 76.1022 19.58C76.2286 19.528 76.3742 19.502 76.5391 19.502C76.781 19.502 76.9714 19.5535 77.1103 19.6566C77.2501 19.7596 77.3366 19.899 77.3697 20.0746ZM77.8153 21.5934V19.5289H78.3019V21.5934H77.8153ZM78.0599 19.2359C77.9829 19.2359 77.9166 19.2103 77.861 19.1592C77.8055 19.1073 77.7777 19.045 77.7777 18.9724C77.7777 18.8989 77.8055 18.8367 77.861 18.7856C77.9166 18.7336 77.9829 18.7076 78.0599 18.7076C78.1379 18.7076 78.2042 18.7336 78.2589 18.7856C78.3144 18.8367 78.3422 18.8989 78.3422 18.9724C78.3422 19.045 78.3144 19.1073 78.2589 19.1592C78.2042 19.2103 78.1379 19.2359 78.0599 19.2359ZM79.8332 19.5289V19.9052H78.6463V19.5289H79.8332ZM78.9393 19.0342H79.4259V20.9725C79.4259 21.0379 79.4358 21.0881 79.4555 21.123C79.4761 21.1571 79.503 21.1804 79.5361 21.1929C79.5693 21.2054 79.606 21.2117 79.6463 21.2117C79.6768 21.2117 79.7046 21.2095 79.7297 21.205C79.7557 21.2005 79.7754 21.1965 79.7888 21.1929L79.8708 21.5733C79.8448 21.5822 79.8076 21.5921 79.7592 21.6029C79.7118 21.6136 79.6535 21.6199 79.5845 21.6217C79.4626 21.6253 79.3529 21.6069 79.2552 21.5666C79.1575 21.5253 79.08 21.4617 79.0227 21.3757C78.9662 21.2897 78.9384 21.1821 78.9393 21.0531V19.0342ZM81.7731 21.6351C81.6422 21.6351 81.5244 21.6118 81.4196 21.5652C81.3156 21.5177 81.2332 21.4478 81.1723 21.3555C81.1122 21.2632 81.0822 21.1494 81.0822 21.0141C81.0822 20.8976 81.1037 20.8013 81.1467 20.7251C81.1897 20.649 81.2484 20.588 81.3228 20.5423C81.3972 20.4966 81.481 20.4621 81.5741 20.4388C81.6682 20.4147 81.7655 20.3972 81.8658 20.3864C81.9868 20.3739 82.0849 20.3627 82.1602 20.3528C82.2355 20.3421 82.2901 20.3259 82.3242 20.3044C82.3591 20.282 82.3766 20.2475 82.3766 20.2009V20.1929C82.3766 20.0916 82.3466 20.0132 82.2865 19.9576C82.2265 19.9021 82.14 19.8743 82.0271 19.8743C81.9079 19.8743 81.8134 19.9003 81.7435 19.9523C81.6745 20.0042 81.6279 20.0656 81.6037 20.1364L81.1494 20.0719C81.1852 19.9464 81.2444 19.8416 81.3268 19.7574C81.4093 19.6722 81.5101 19.6086 81.6293 19.5665C81.7484 19.5235 81.8802 19.502 82.0244 19.502C82.1239 19.502 82.2229 19.5136 82.3215 19.5369C82.42 19.5602 82.5101 19.5988 82.5916 19.6525C82.6732 19.7054 82.7386 19.7775 82.7879 19.8689C82.8381 19.9603 82.8632 20.0746 82.8632 20.2117V21.5934H82.3954V21.3098H82.3793C82.3497 21.3672 82.308 21.4209 82.2543 21.4711C82.2014 21.5204 82.1346 21.5603 82.054 21.5908C81.9742 21.6203 81.8806 21.6351 81.7731 21.6351ZM81.8994 21.2776C81.9971 21.2776 82.0818 21.2583 82.1535 21.2198C82.2251 21.1804 82.2803 21.1284 82.3188 21.0639C82.3582 20.9993 82.3779 20.929 82.3779 20.8528V20.6095C82.3627 20.6221 82.3367 20.6337 82.3 20.6445C82.2641 20.6552 82.2238 20.6647 82.179 20.6727C82.1342 20.6808 82.0898 20.688 82.0459 20.6942C82.002 20.7005 81.9639 20.7059 81.9317 20.7104C81.8591 20.7202 81.7941 20.7363 81.7368 20.7587C81.6794 20.7811 81.6342 20.8125 81.601 20.8528C81.5679 20.8923 81.5513 20.9433 81.5513 21.0061C81.5513 21.0957 81.584 21.1633 81.6494 21.209C81.7148 21.2547 81.7982 21.2776 81.8994 21.2776ZM83.3524 21.5934V19.5289H83.8175V19.8797H83.8417C83.8847 19.7614 83.9559 19.6691 84.0554 19.6028C84.1549 19.5356 84.2736 19.502 84.4116 19.502C84.5514 19.502 84.6692 19.536 84.7651 19.6041C84.8619 19.6714 84.93 19.7632 84.9694 19.8797H84.9909C85.0366 19.765 85.1137 19.6736 85.2221 19.6055C85.3314 19.5365 85.4609 19.502 85.6105 19.502C85.8005 19.502 85.9555 19.562 86.0756 19.6821C86.1957 19.8022 86.2557 19.9774 86.2557 20.2077V21.5934H85.7678V20.2829C85.7678 20.1548 85.7338 20.0611 85.6657 20.002C85.5976 19.942 85.5142 19.9119 85.4156 19.9119C85.2983 19.9119 85.2064 19.9487 85.1401 20.0222C85.0747 20.0947 85.042 20.1893 85.042 20.3058V21.5934H84.5648V20.2628C84.5648 20.1561 84.5326 20.071 84.468 20.0074C84.4044 19.9438 84.3211 19.9119 84.218 19.9119C84.1481 19.9119 84.0845 19.9299 84.0272 19.9657C83.9698 20.0007 83.9241 20.0504 83.8901 20.1149C83.856 20.1785 83.839 20.2529 83.839 20.338V21.5934H83.3524ZM87.6634 21.6338C87.4564 21.6338 87.2776 21.5908 87.127 21.5047C86.9774 21.4178 86.8623 21.295 86.7816 21.1364C86.701 20.9769 86.6606 20.7892 86.6606 20.5733C86.6606 20.3609 86.701 20.1745 86.7816 20.0141C86.8632 19.8528 86.977 19.7274 87.123 19.6377C87.2691 19.5472 87.4407 19.502 87.6378 19.502C87.7651 19.502 87.8851 19.5226 87.998 19.5638C88.1118 19.6041 88.2122 19.6669 88.2991 19.752C88.3869 19.8371 88.4559 19.9456 88.5061 20.0773C88.5563 20.2081 88.5814 20.364 88.5814 20.545V20.6942H86.8891V20.3663H88.115C88.1141 20.2731 88.0939 20.1902 88.0545 20.1176C88.0151 20.0441 87.96 19.9863 87.8892 19.9442C87.8193 19.9021 87.7377 19.881 87.6445 19.881C87.5451 19.881 87.4577 19.9052 87.3824 19.9536C87.3072 20.0011 87.2485 20.0638 87.2064 20.1418C87.1651 20.2189 87.1441 20.3035 87.1432 20.3958V20.6821C87.1432 20.8022 87.1651 20.9053 87.209 20.9913C87.2529 21.0764 87.3143 21.1418 87.3932 21.1875C87.472 21.2323 87.5643 21.2547 87.6701 21.2547C87.7409 21.2547 87.8049 21.2449 87.8623 21.2252C87.9196 21.2045 87.9694 21.1745 88.0115 21.1351C88.0536 21.0957 88.0854 21.0468 88.1069 20.9886L88.5612 21.0397C88.5326 21.1597 88.4779 21.2646 88.3972 21.3542C88.3175 21.4429 88.2153 21.5119 88.0908 21.5612C87.9662 21.6096 87.8238 21.6338 87.6634 21.6338ZM90.024 19.5289V19.9052H88.8371V19.5289H90.024ZM89.1301 19.0342H89.6167V20.9725C89.6167 21.0379 89.6266 21.0881 89.6463 21.123C89.6669 21.1571 89.6938 21.1804 89.7269 21.1929C89.7601 21.2054 89.7968 21.2117 89.8371 21.2117C89.8676 21.2117 89.8954 21.2095 89.9205 21.205C89.9465 21.2005 89.9662 21.1965 89.9796 21.1929L90.0616 21.5733C90.0356 21.5822 89.9984 21.5921 89.95 21.6029C89.9025 21.6136 89.8443 21.6199 89.7753 21.6217C89.6534 21.6253 89.5437 21.6069 89.446 21.5666C89.3483 21.5253 89.2708 21.4617 89.2135 21.3757C89.157 21.2897 89.1292 21.1821 89.1301 21.0531V19.0342Z" fill="black" fill-opacity="0.6"/>
<defs>
<filter id="filter0_d_3307_1852" x="-5.04673" y="0.635514" width="30.281" height="30.2804" filterUnits="userSpaceOnUse" color-interpolation-filters="sRGB">
<feFlood flood-opacity="0" result="BackgroundImageFix"/>
<feColorMatrix in="SourceAlpha" type="matrix" values="0 0 0 0 0 0 0 0 0 0 0 0 0 0 0 0 0 0 127 0" result="hardAlpha"/>
<feOffset dy="1.68224"/>
<feGaussianBlur stdDeviation="2.52336"/>
<feComposite in2="hardAlpha" operator="out"/>
<feColorMatrix type="matrix" values="0 0 0 0 0.129412 0 0 0 0 0.533333 0 0 0 0 0.905882 0 0 0 0.3 0"/>
<feBlend mode="normal" in2="BackgroundImageFix" result="effect1_dropShadow_3307_1852"/>
<feBlend mode="normal" in="SourceGraphic" in2="effect1_dropShadow_3307_1852" result="shape"/>
</filter>
<filter id="filter1_d_3307_1852" x="8.4103" y="0.635514" width="30.281" height="30.2804" filterUnits="userSpaceOnUse" color-interpolation-filters="sRGB">
<feFlood flood-opacity="0" result="BackgroundImageFix"/>
<feColorMatrix in="SourceAlpha" type="matrix" values="0 0 0 0 0 0 0 0 0 0 0 0 0 0 0 0 0 0 127 0" result="hardAlpha"/>
<feOffset dy="1.68224"/>
<feGaussianBlur stdDeviation="2.52336"/>
<feComposite in2="hardAlpha" operator="out"/>
<feColorMatrix type="matrix" values="0 0 0 0 0.129412 0 0 0 0 0.533333 0 0 0 0 0.905882 0 0 0 0.3 0"/>
<feBlend mode="normal" in2="BackgroundImageFix" result="effect1_dropShadow_3307_1852"/>
<feBlend mode="normal" in="SourceGraphic" in2="effect1_dropShadow_3307_1852" result="shape"/>
</filter>
</defs>
</svg>
