<?xml version="1.0" encoding="UTF-8" standalone="no"?>
<svg
   xmlns:dc="http://purl.org/dc/elements/1.1/"
   xmlns:cc="http://creativecommons.org/ns#"
   xmlns:rdf="http://www.w3.org/1999/02/22-rdf-syntax-ns#"
   xmlns:svg="http://www.w3.org/2000/svg"
   xmlns="http://www.w3.org/2000/svg"
   xmlns:sodipodi="http://sodipodi.sourceforge.net/DTD/sodipodi-0.dtd"
   xmlns:inkscape="http://www.inkscape.org/namespaces/inkscape"
   viewBox="0 0 585.16241 167.58249"
   height="167.58249"
   width="585.16241"
   xml:space="preserve"
   id="svg2"
   version="1.1"
   inkscape:version="0.91 r13725"
   sodipodi:docname="Slack CMYK.svg"><sodipodi:namedview
     pagecolor="#ffffff"
     bordercolor="#666666"
     borderopacity="1"
     objecttolerance="10"
     gridtolerance="10"
     guidetolerance="10"
     inkscape:pageopacity="0"
     inkscape:pageshadow="2"
     inkscape:window-width="1366"
     inkscape:window-height="705"
     id="namedview3358"
     showgrid="false"
     fit-margin-top="0"
     fit-margin-left="0"
     fit-margin-right="0"
     fit-margin-bottom="0"
     inkscape:zoom="1.4633713"
     inkscape:cx="271.33569"
     inkscape:cy="125.32114"
     inkscape:window-x="-8"
     inkscape:window-y="-8"
     inkscape:window-maximized="1"
     inkscape:current-layer="svg2" /><metadata
     id="metadata8"><rdf:RDF><cc:Work
         rdf:about=""><dc:format>image/svg+xml</dc:format><dc:type
           rdf:resource="http://purl.org/dc/dcmitype/StillImage" /><dc:title></dc:title></cc:Work></rdf:RDF></metadata><defs
     id="defs6"><clipPath
       id="clipPath20"
       clipPathUnits="userSpaceOnUse"><path
         id="path18"
         d="M 0,1256.87 0,0 l 4388.72,0 0,1256.87 z"
         inkscape:connector-curvature="0" /></clipPath></defs><g
     id="g3411"
     transform="translate(12.322913,-242.28632)"><path
       d="m 93.133967,257.26632 c -2.4724,-7.60934 -10.644271,-11.77334 -18.253204,-9.30001 -7.608267,2.472 -11.7724,10.64401 -9.300533,18.252 l 37.45734,115.24281 c 2.57133,7.10786 10.24946,11.10266 17.62079,8.98133 7.68814,-2.2136 12.3748,-10.37867 9.92147,-17.93027 -0.0933,-0.2864 -37.445863,-115.24586 -37.445863,-115.24586"
       style="fill:#e7a213;fill-opacity:1;fill-rule:nonzero;stroke:none"
       id="path22-7"
       inkscape:connector-curvature="0" /><path
       d="m 35.095431,276.12365 c -2.4724,-7.608 -10.644267,-11.772 -18.2532,-9.3 -7.6082657,2.472 -11.7723997,10.64426 -9.3005327,18.2532 L 44.99903,400.3195 c 2.571334,7.10834 10.249467,11.1026 17.620267,8.98021 7.688133,-2.21198 12.375599,-10.37761 9.921866,-17.92913 -0.0932,-0.28706 -37.445732,-115.24693 -37.445732,-115.24693"
       style="fill:#4dc088;fill-opacity:1;fill-rule:nonzero;stroke:none"
       id="path24-8"
       inkscape:connector-curvature="0" /><path
       d="m 140.27983,352.71018 c 7.60933,-2.4724 11.772,-10.64427 9.3,-18.2532 -2.472,-7.60827 -10.644,-11.7724 -18.252,-9.30053 L 16.085031,362.61378 c -7.1083997,2.57134 -11.1026657,10.24947 -8.9813327,17.62027 2.213067,7.688 10.3781327,12.37507 17.9302657,9.92133 0.2864,-0.0932 115.245866,-37.4452 115.245866,-37.4452"
       style="fill:#e10d63;fill-opacity:1;fill-rule:nonzero;stroke:none"
       id="path26-3"
       inkscape:connector-curvature="0" /><path
       d="m 40.103697,385.25965 c 7.5016,-2.4376 17.169866,-5.57867 27.543733,-8.94947 -2.436934,-7.50106 -5.579067,-17.17093 -8.950533,-27.5464 l -27.5452,8.95254 8.952,27.54333"
       style="fill:#3f2543;fill-opacity:1;fill-rule:nonzero;stroke:none"
       id="path28-4"
       inkscape:connector-curvature="0" /><path
       d="m 98.142767,366.40125 c 10.413603,-3.38333 20.091733,-6.52813 27.543733,-8.94947 -2.43734,-7.50213 -5.58014,-17.174 -8.95254,-27.5516 l -27.545333,8.95267 8.95414,27.5484"
       style="fill:#d01e25;fill-opacity:1;fill-rule:nonzero;stroke:none"
       id="path30-9"
       inkscape:connector-curvature="0" /><path
       d="m 121.4225,294.67165 c 7.608,-2.4724 11.772,-10.64427 9.3,-18.25334 -2.472,-7.60933 -10.64427,-11.772 -18.2532,-9.3 L -2.7733549,304.57525 c -7.1078131,2.57133 -11.1026001,10.25 -8.9807301,17.62026 2.2130236,7.688 10.3781303,12.3756 17.9296503,9.92187 C 6.4626313,332.02418 121.4225,294.67165 121.4225,294.67165"
       style="fill:#7cd3dc;fill-opacity:1;fill-rule:nonzero;stroke:none"
       id="path32-2"
       inkscape:connector-curvature="0" /><path
       d="m 21.240764,327.22258 c 7.501467,-2.438 17.1724,-5.5796 27.548933,-8.95147 -3.383867,-10.41413 -6.528667,-20.0928 -8.950533,-27.5464 l -27.550533,8.95467 8.952133,27.5432"
       style="fill:#36987b;fill-opacity:1;fill-rule:nonzero;stroke:none"
       id="path34-0"
       inkscape:connector-curvature="0" /><path
       d="m 79.279296,308.36431 c 10.415601,-3.38386 20.095731,-6.5292 27.548934,-8.95106 -3.3844,-10.41667 -6.53026,-20.09787 -8.952133,-27.55227 l -27.551067,8.95533 8.954266,27.548"
       style="fill:#5a872d;fill-opacity:1;fill-rule:nonzero;stroke:none"
       id="path36-4"
       inkscape:connector-curvature="0" /><path
       d="m 257.17716,287.60071 c 5.09733,2.224 5.468,3.89227 1.48267,11.49067 -4.076,7.78387 -5.096,8.24733 -10.1,6.20827 -6.30133,-2.68694 -14.364,-4.726 -19.55333,-4.726 -8.524,0 -14.17734,3.0584 -14.17734,7.69173 0,15.29 48.836,7.04213 48.836,39.66094 0,16.40253 -14.08667,27.33746 -35.21333,27.33746 -11.12,0 -24.836,-3.7068 -34.288,-8.526 -4.72533,-2.40893 -5.00267,-3.79906 -0.92667,-11.5828 3.52267,-6.85786 4.63334,-7.59906 9.73067,-5.46773 8.06133,3.52133 18.256,6.2088 25.11333,6.2088 7.784,0 12.97334,-3.15107 12.97334,-7.78387 0,-14.82707 -49.66934,-7.7844 -49.66934,-39.38387 0,-16.7724 13.992,-27.98533 34.93467,-27.98533 9.82267,0 22.24,2.96507 30.85733,6.85773"
       style="fill:#373d47;fill-opacity:1;fill-rule:nonzero;stroke:none"
       id="path38-9"
       inkscape:connector-curvature="0" /><path
       d="m 296.56516,248.86498 0,121.57947 c 0,1.85373 -1.94667,3.79947 -4.72533,3.79947 l -12.78934,0 c -2.78,0 -4.72666,-1.94574 -4.72666,-3.79947 l 0,-121.57947 c 0,-6.02266 1.66933,-6.57866 11.12133,-6.57866 10.74933,0 11.12,0.74133 11.12,6.57866"
       style="fill:#373d47;fill-opacity:1;fill-rule:nonzero;stroke:none"
       id="path40-2"
       inkscape:connector-curvature="0" /><path
       d="m 328.53449,347.55592 c 0,6.20893 5.28267,10.37866 13.252,10.37866 9.63734,0 18.34667,-4.63333 23.444,-12.50986 l 0,-8.15467 c -5.09733,-1.9464 -11.30533,-3.0584 -16.86533,-3.0584 -11.86133,0 -19.83067,5.6532 -19.83067,13.34427 z m 58.936,-30.30201 0,52.35667 c 0,2.77974 -1.94533,4.72614 -4.72533,4.72614 l -12.604,0 c -2.872,0 -4.91067,-2.13134 -4.72533,-5.00374 l 0.18533,-5.65253 c -6.85733,7.59787 -16.68,11.58333 -26.50267,11.58333 -19.08933,0 -31.87733,-11.02813 -31.87733,-27.5224 0,-17.514 14.456,-29.2828 36.14,-29.37547 8.248,0 15.75333,1.4828 21.86933,3.98427 l 0,-6.02333 c 0,-9.63707 -7.59866,-15.3824 -20.47866,-15.3824 -6.024,0 -13.43734,2.41 -19.368,5.83813 -4.54134,2.59467 -5.65334,2.40933 -10.564,-4.91093 -4.81867,-7.32147 -4.63334,-8.71094 0,-11.67667 8.896,-5.74533 20.94266,-9.452 32.06266,-9.452 24.92667,0 40.588,13.5296 40.588,36.51093"
       style="fill:#373d47;fill-opacity:1;fill-rule:nonzero;stroke:none"
       id="path42-7"
       inkscape:connector-curvature="0" /><path
       d="m 474.21182,287.78618 c 4.632,2.68693 4.81867,4.16973 -0.27866,12.0464 -4.81734,7.41347 -5.652,7.87707 -10.748,5.28227 -3.89334,-2.03907 -10.10134,-3.79947 -15.19867,-3.79947 -16.03067,0 -26.688,10.56347 -26.688,26.50253 0,16.58747 10.65733,27.70734 26.688,27.70734 5.56133,0 12.51067,-2.13173 17.05067,-4.63333 4.63333,-2.68747 5.65333,-2.50214 10.564,4.63333 4.448,6.6724 4.356,8.2468 0.37066,11.0276 -7.13466,4.91147 -18.44,8.71093 -28.35466,8.71093 -29.65334,0 -49.48534,-18.99693 -49.48534,-47.44587 0,-28.26293 19.832,-47.07493 49.66934,-47.07493 9.08133,0 19.73866,3.05827 26.41066,7.0432"
       style="fill:#373d47;fill-opacity:1;fill-rule:nonzero;stroke:none"
       id="path44-1"
       inkscape:connector-curvature="0" /><path
       d="m 570.95849,362.75338 c 3.70666,4.72547 2.224,6.39427 -7.04267,9.73014 -9.452,3.42813 -10.74933,3.2428 -14.084,-1.11187 l -26.504,-35.39907 -11.86133,11.49014 0,22.98173 c 0,1.85373 -1.94533,3.79947 -4.72533,3.79947 l -12.788,0 c -2.78,0 -4.72667,-1.94574 -4.72667,-3.79947 l 0,-121.57947 c 0,-6.02266 1.668,-6.57866 11.12,-6.57866 10.74933,0 11.12,0.74133 11.12,6.57866 l 0,69.13 36.32533,-34.84213 c 3.98533,-3.8 6.20933,-3.52134 13.344,1.20466 7.87733,5.0964 8.43333,6.4864 4.63333,10.19267 l -27.05866,26.31773 32.248,41.88547"
       style="fill:#373d47;fill-opacity:1;fill-rule:nonzero;stroke:none"
       id="path46-3"
       inkscape:connector-curvature="0" /></g></svg>