<svg width="64" height="64" viewBox="0 0 64 64" fill="none" xmlns="http://www.w3.org/2000/svg">
<g id="Icon  2" clip-path="url(#clip0_3107_26908)">
<g id="Border" opacity="0.06">
<rect id="Shape" width="64" height="64" rx="16" fill="#1565D8"/>
</g>
<path id="twitter" d="M45.7734 25.1875C47.1797 24.1328 48.4453 22.8672 49.4297 21.3906C48.1641 21.9531 46.6875 22.375 45.2109 22.5156C46.7578 21.6016 47.8828 20.1953 48.4453 18.4375C47.0391 19.2812 45.4219 19.9141 43.8047 20.2656C42.3984 18.7891 40.5 17.9453 38.3906 17.9453C34.3125 17.9453 31.0078 21.25 31.0078 25.3281C31.0078 25.8906 31.0781 26.4531 31.2188 27.0156C25.1016 26.6641 19.6172 23.7109 15.9609 19.2812C15.3281 20.3359 14.9766 21.6016 14.9766 23.0078C14.9766 25.5391 16.2422 27.7891 18.2812 29.125C17.0859 29.0547 15.8906 28.7734 14.9062 28.2109V28.2812C14.9062 31.8672 17.4375 34.8203 20.8125 35.5234C20.25 35.6641 19.5469 35.8047 18.9141 35.8047C18.4219 35.8047 18 35.7344 17.5078 35.6641C18.4219 38.6172 21.1641 40.7266 24.3984 40.7969C21.8672 42.7656 18.7031 43.9609 15.2578 43.9609C14.625 43.9609 14.0625 43.8906 13.5 43.8203C16.7344 45.9297 20.6016 47.125 24.8203 47.125C38.3906 47.125 45.7734 35.9453 45.7734 26.1719C45.7734 25.8203 45.7734 25.5391 45.7734 25.1875Z" fill="#1565D8"/>
</g>
<defs>
<clipPath id="clip0_3107_26908">
<rect width="64" height="64" fill="white"/>
</clipPath>
</defs>
</svg>
