<svg width="20" height="14" viewBox="0 0 20 14" fill="none" xmlns="http://www.w3.org/2000/svg">
<path d="M18.8086 2.14453C19.2305 3.62109 19.2305 6.78516 19.2305 6.78516C19.2305 6.78516 19.2305 9.91406 18.8086 11.4258C18.5977 12.2695 17.9297 12.9023 17.1211 13.1133C15.6094 13.5 9.63281 13.5 9.63281 13.5C9.63281 13.5 3.62109 13.5 2.10938 13.1133C1.30078 12.9023 0.632812 12.2695 0.421875 11.4258C0 9.91406 0 6.78516 0 6.78516C0 6.78516 0 3.62109 0.421875 2.14453C0.632812 1.30078 1.30078 0.632812 2.10938 0.421875C3.62109 0 9.63281 0 9.63281 0C9.63281 0 15.6094 0 17.1211 0.421875C17.9297 0.632812 18.5977 1.30078 18.8086 2.14453ZM7.66406 9.63281L12.6562 6.78516L7.66406 3.9375V9.63281Z" fill="#5A7184"/>
</svg>
