<svg width="64" height="64" viewBox="0 0 64 64" fill="none" xmlns="http://www.w3.org/2000/svg">
<g id="Icon  4" clip-path="url(#clip0_3107_26930)">
<g id="Border" opacity="0.06">
<rect id="Shape" width="64" height="64" rx="16" fill="#1565D8"/>
</g>
<path id="youtube" d="M50.3516 23.2891C49.9297 21.6016 48.5938 20.2656 46.9766 19.8438C43.9531 19 32 19 32 19C32 19 19.9766 19 16.9531 19.8438C15.3359 20.2656 14 21.6016 13.5781 23.2891C12.7344 26.2422 12.7344 32.5703 12.7344 32.5703C12.7344 32.5703 12.7344 38.8281 13.5781 41.8516C14 43.5391 15.3359 44.8047 16.9531 45.2266C19.9766 46 32 46 32 46C32 46 43.9531 46 46.9766 45.2266C48.5938 44.8047 49.9297 43.5391 50.3516 41.8516C51.1953 38.8281 51.1953 32.5703 51.1953 32.5703C51.1953 32.5703 51.1953 26.2422 50.3516 23.2891ZM28.0625 38.2656V26.875L38.0469 32.5703L28.0625 38.2656Z" fill="#1565D8"/>
</g>
<defs>
<clipPath id="clip0_3107_26930">
<rect width="64" height="64" fill="white"/>
</clipPath>
</defs>
</svg>
